<mxfile host="65bd71144e">
    <diagram id="LZXjJIgUBK6TCrcKXHRb" name="Page-1">
        <mxGraphModel dx="1788" dy="1330" grid="1" gridSize="10" guides="1" tooltips="1" connect="1" arrows="1" fold="1" page="1" pageScale="1" pageWidth="850" pageHeight="1100" math="0" shadow="0">
            <root>
                <mxCell id="0"/>
                <mxCell id="1" parent="0"/>
                <mxCell id="2" value="" style="rounded=1;whiteSpace=wrap;html=1;" vertex="1" parent="1">
                    <mxGeometry x="880" y="190" width="170" height="200" as="geometry"/>
                </mxCell>
                <mxCell id="4" value="" style="shape=image;verticalLabelPosition=bottom;labelBackgroundColor=default;verticalAlign=top;aspect=fixed;imageAspect=0;image=https://streamlit.io/images/brand/streamlit-logo-secondary-colormark-darktext.png;" vertex="1" parent="1">
                    <mxGeometry x="896.5799999999999" y="190" width="136.84" height="80" as="geometry"/>
                </mxCell>
                <mxCell id="5" value="" style="rounded=1;whiteSpace=wrap;html=1;" vertex="1" parent="1">
                    <mxGeometry x="550" y="235" width="190" height="100" as="geometry"/>
                </mxCell>
                <mxCell id="7" value="" style="shape=image;verticalLabelPosition=bottom;labelBackgroundColor=default;verticalAlign=top;aspect=fixed;imageAspect=0;image=https://files.svgcdn.io/logos/fastapi.png;labelBorderColor=none;" vertex="1" parent="1">
                    <mxGeometry x="575" y="220" width="130" height="130" as="geometry"/>
                </mxCell>
                <mxCell id="8" value="" style="endArrow=classic;html=1;entryX=1;entryY=0.25;entryDx=0;entryDy=0;" edge="1" parent="1" target="5">
                    <mxGeometry width="50" height="50" relative="1" as="geometry">
                        <mxPoint x="880" y="260" as="sourcePoint"/>
                        <mxPoint x="930" y="210" as="targetPoint"/>
                    </mxGeometry>
                </mxCell>
                <mxCell id="10" value="Request" style="text;html=1;align=center;verticalAlign=middle;resizable=0;points=[];autosize=1;strokeColor=none;fillColor=none;" vertex="1" parent="1">
                    <mxGeometry x="760" y="240" width="70" height="30" as="geometry"/>
                </mxCell>
                <mxCell id="11" value="" style="endArrow=classic;html=1;entryX=-0.006;entryY=0.602;entryDx=0;entryDy=0;exitX=1;exitY=0.75;exitDx=0;exitDy=0;entryPerimeter=0;" edge="1" parent="1" source="5" target="2">
                    <mxGeometry width="50" height="50" relative="1" as="geometry">
                        <mxPoint x="600" y="440" as="sourcePoint"/>
                        <mxPoint x="650" y="390" as="targetPoint"/>
                    </mxGeometry>
                </mxCell>
                <mxCell id="12" value="Response" style="text;html=1;align=center;verticalAlign=middle;resizable=0;points=[];autosize=1;strokeColor=none;fillColor=none;" vertex="1" parent="1">
                    <mxGeometry x="760" y="290" width="80" height="30" as="geometry"/>
                </mxCell>
                <mxCell id="21" value="" style="rounded=1;whiteSpace=wrap;html=1;" vertex="1" parent="1">
                    <mxGeometry x="580" y="405.73" width="140" height="234.27" as="geometry"/>
                </mxCell>
                <mxCell id="22" value="" style="shape=image;verticalLabelPosition=bottom;labelBackgroundColor=default;verticalAlign=top;aspect=fixed;imageAspect=0;image=https://cdn.worldvectorlogo.com/logos/minio-1.svg;" vertex="1" parent="1">
                    <mxGeometry x="602.5" y="427.13" width="95" height="191.47" as="geometry"/>
                </mxCell>
                <mxCell id="23" value="" style="rounded=1;whiteSpace=wrap;html=1;" vertex="1" parent="1">
                    <mxGeometry x="550" y="710" width="190" height="100" as="geometry"/>
                </mxCell>
                <mxCell id="24" value="" style="shape=image;verticalLabelPosition=bottom;labelBackgroundColor=default;verticalAlign=top;aspect=fixed;imageAspect=0;image=https://raw.githubusercontent.com/mlflow/mlflow/master/docs/source/_static/MLflow-logo-final-black.png;" vertex="1" parent="1">
                    <mxGeometry x="563.3299999999999" y="730" width="163.35" height="60" as="geometry"/>
                </mxCell>
                <mxCell id="26" value="" style="rounded=1;whiteSpace=wrap;html=1;" vertex="1" parent="1">
                    <mxGeometry x="280" y="335" width="200" height="335" as="geometry"/>
                </mxCell>
                <mxCell id="27" value="" style="shape=image;verticalLabelPosition=bottom;labelBackgroundColor=default;verticalAlign=top;aspect=fixed;imageAspect=0;image=https://upload.wikimedia.org/wikipedia/commons/thumb/d/de/AirflowLogo.png/800px-AirflowLogo.png;" vertex="1" parent="1">
                    <mxGeometry x="302.39" y="345.73" width="155.22" height="60" as="geometry"/>
                </mxCell>
                <mxCell id="29" value="" style="shape=image;verticalLabelPosition=bottom;labelBackgroundColor=default;verticalAlign=top;aspect=fixed;imageAspect=0;image=https://cdn-icons-png.flaticon.com/512/9850/9850908.png;" vertex="1" parent="1">
                    <mxGeometry x="319" y="461.87" width="122" height="122" as="geometry"/>
                </mxCell>
                <mxCell id="30" value="" style="endArrow=classic;html=1;entryX=-0.015;entryY=0.441;entryDx=0;entryDy=0;entryPerimeter=0;" edge="1" parent="1" target="21">
                    <mxGeometry width="50" height="50" relative="1" as="geometry">
                        <mxPoint x="480" y="510" as="sourcePoint"/>
                        <mxPoint x="530" y="460" as="targetPoint"/>
                    </mxGeometry>
                </mxCell>
                <mxCell id="31" value="Save Clean &lt;br&gt;Data" style="text;html=1;align=center;verticalAlign=middle;resizable=0;points=[];autosize=1;strokeColor=none;fillColor=none;" vertex="1" parent="1">
                    <mxGeometry x="485" y="510" width="90" height="40" as="geometry"/>
                </mxCell>
                <mxCell id="45" value="" style="rounded=1;whiteSpace=wrap;html=1;" vertex="1" parent="1">
                    <mxGeometry x="10" y="412.5" width="180" height="190" as="geometry"/>
                </mxCell>
                <mxCell id="46" value="" style="shape=image;verticalLabelPosition=bottom;labelBackgroundColor=default;verticalAlign=top;aspect=fixed;imageAspect=0;image=https://logos-world.net/wp-content/uploads/2021/02/Google-Cloud-Logo.png;" vertex="1" parent="1">
                    <mxGeometry x="15.699999999999989" y="402.5" width="168.6" height="95" as="geometry"/>
                </mxCell>
                <mxCell id="47" value="" style="shape=image;verticalLabelPosition=bottom;labelBackgroundColor=default;verticalAlign=top;aspect=fixed;imageAspect=0;image=https://static-00.iconduck.com/assets.00/file-csv-icon-228x256-x7v8tuti.png;" vertex="1" parent="1">
                    <mxGeometry x="64.38" y="484.37" width="71.25" height="80" as="geometry"/>
                </mxCell>
                <mxCell id="48" value="" style="endArrow=classic;html=1;entryX=-0.015;entryY=0.441;entryDx=0;entryDy=0;entryPerimeter=0;" edge="1" parent="1">
                    <mxGeometry width="50" height="50" relative="1" as="geometry">
                        <mxPoint x="190" y="502" as="sourcePoint"/>
                        <mxPoint x="280.0000000000001" y="502.02306999999996" as="targetPoint"/>
                    </mxGeometry>
                </mxCell>
                <mxCell id="49" value="Download &lt;br&gt;Dataset" style="text;html=1;align=center;verticalAlign=middle;resizable=0;points=[];autosize=1;strokeColor=none;fillColor=none;" vertex="1" parent="1">
                    <mxGeometry x="190" y="502.87" width="80" height="40" as="geometry"/>
                </mxCell>
                <mxCell id="52" value="" style="endArrow=none;html=1;exitX=-0.001;exitY=0.418;exitDx=0;exitDy=0;exitPerimeter=0;entryX=0;entryY=0.25;entryDx=0;entryDy=0;startArrow=open;startFill=0;endFill=0;" edge="1" parent="1" source="5" target="21">
                    <mxGeometry width="50" height="50" relative="1" as="geometry">
                        <mxPoint x="550" y="520" as="sourcePoint"/>
                        <mxPoint x="520" y="450" as="targetPoint"/>
                        <Array as="points">
                            <mxPoint x="520" y="277"/>
                            <mxPoint x="520" y="464"/>
                        </Array>
                    </mxGeometry>
                </mxCell>
                <mxCell id="53" value="Consumer &lt;br&gt;trained model" style="text;html=1;align=center;verticalAlign=middle;resizable=0;points=[];autosize=1;strokeColor=none;fillColor=none;" vertex="1" parent="1">
                    <mxGeometry x="510" y="345.73" width="100" height="40" as="geometry"/>
                </mxCell>
                <mxCell id="54" value="" style="endArrow=classic;html=1;exitX=0.5;exitY=0;exitDx=0;exitDy=0;entryX=0.457;entryY=1.009;entryDx=0;entryDy=0;entryPerimeter=0;" edge="1" parent="1" source="23" target="21">
                    <mxGeometry width="50" height="50" relative="1" as="geometry">
                        <mxPoint x="590" y="650" as="sourcePoint"/>
                        <mxPoint x="640" y="600" as="targetPoint"/>
                    </mxGeometry>
                </mxCell>
                <mxCell id="55" value="Save &lt;br&gt;model and &lt;br&gt;experiments" style="text;html=1;align=center;verticalAlign=middle;resizable=0;points=[];autosize=1;strokeColor=none;fillColor=none;" vertex="1" parent="1">
                    <mxGeometry x="636.6800000000001" y="645" width="90" height="60" as="geometry"/>
                </mxCell>
                <mxCell id="57" value="" style="rounded=1;whiteSpace=wrap;html=1;labelBorderColor=none;" vertex="1" parent="1">
                    <mxGeometry x="170" y="700" width="200" height="110" as="geometry"/>
                </mxCell>
                <mxCell id="58" value="" style="shape=image;verticalLabelPosition=bottom;labelBackgroundColor=default;verticalAlign=top;aspect=fixed;imageAspect=0;image=https://jupyter.org/assets/share.png;" vertex="1" parent="1">
                    <mxGeometry x="174.76" y="705" width="190.48" height="100" as="geometry"/>
                </mxCell>
                <mxCell id="59" value="" style="endArrow=classic;html=1;exitX=1.005;exitY=0.436;exitDx=0;exitDy=0;exitPerimeter=0;entryX=-0.009;entryY=0.375;entryDx=0;entryDy=0;entryPerimeter=0;" edge="1" parent="1" source="57" target="23">
                    <mxGeometry width="50" height="50" relative="1" as="geometry">
                        <mxPoint x="420" y="700" as="sourcePoint"/>
                        <mxPoint x="470" y="650" as="targetPoint"/>
                    </mxGeometry>
                </mxCell>
                <mxCell id="60" value="Load model" style="text;html=1;align=center;verticalAlign=middle;resizable=0;points=[];autosize=1;strokeColor=none;fillColor=none;" vertex="1" parent="1">
                    <mxGeometry x="420" y="725" width="90" height="30" as="geometry"/>
                </mxCell>
                <mxCell id="61" value="" style="shape=image;verticalLabelPosition=bottom;labelBackgroundColor=default;verticalAlign=top;aspect=fixed;imageAspect=0;image=data:image/png,iVBORw0KGgoAAAANSUhEUgAAAucAAAJZCAYAAAAKx5vNAAAABHNCSVQICAgIfAhkiAAAABl0RVh0U29mdHdhcmUAZ25vbWUtc2NyZWVuc2hvdO8Dvz4AAAAmdEVYdENyZWF0aW9uIFRpbWUAbWFyIDEwIGRpYyAyMDI0IDE4OjIxOjAxwgRYuQAAIABJREFUeJzs3Wd4FFUXwPH/zCYhjYSEJPSaSBKahCag0lVAyqsgRTqCgICFKogIggUbKCBFEEQUKQpIB+mhdwiBkAAJIQnpvWdn3g8WSHY2ZJNNQe/vefigm92Z2Z1758ydc8+VVFVVEQRBEARBEASh1MmlvQOCIAiCIAiCIPxJBOeCIAiCIAiCUEaI4FwQBEEQBEEQyggRnAuCIAiCIAhCGSGCc0EQBEEQBEEoI0RwLgiCIAiCIAhlhAjOBUEQBEEQBKGMEMG5IAiCIAiCIJQRIjgXBEEQBEEQhDJCBOeCIAiCIAiCUEaI4FwQBEEQBEEQyggRnAuCIAiCIAhCGSGCc0EQBEEQBEEoI0RwLgiCIAiCIAhlhAjOBUEQBEEQBKGMEMG5IAiCIAiCIJQRIjgXBEEQBEEQhDJCBOeCIAiCIAiCUEaI4FwQBEEQBEEQyggRnAuCIAiCIAhCGSGCc0EQBEEQBEEoI0RwLgiCIAiCIAhlhAjOBUEQBEEQBKGMEMG5IAiCIAiCIJQRIjgXBEEQBEEQhDJCBOdmlJmcSlZp74QgCIIgCP8a+pQU0tTS3guhJIng3Ez04fuZ9epQJv4cSFpp74wgCIIgCI89Nf4Mn48YzNill0gUAfp/hgjOzUBNvsySKV/yR0QMJxZO5p0110kRjUgQBEEQhMLKvMW6GfPYfDueq6tnMHbBWWKV0t4poSSI4LyoskPZ8v5s1gZkoAIoiZz9dipvrrgi7nIFQRAEQTCdEsOBj99n0bkkFAA1jRvr32fsZ8eJEgH6v54IzotCTeDEgvf57Hg8udqKksylVdMZv+gCCSJAFwRBEAShwNLwWzmL2bvCyXk4hlAzCPp1DmPmHeG+vtR2TigBFqW9A4+vTAJ//pD3NgeTpRGAS5bO1Krrgo2U9xWFyCtHOH8vx/A9ju4806Yu5Q3eA0rcZX759gc2H/UnLBnKV/WmbZ/hjOvXmIrFfouVQfAfP7Jo7R+cC4ols1xF3Jt1Ytj4ITxX27q4N1481GQCT57jtkb+kVX1JrSr7yzuXP9zVJKv72LZ0l/541IoCXobKnm2pNfIUQxpUwnL0t49QShrCtOPZkdy/MfvWPn7GW5EpmNRoQZNOvZm3JhueGld/Mo6sx+PnrCdnzJl5XVStWILnSM13Cth/2+8QKWHcsY3kHiD45ap1OhZmlTRlcZelQpJVVUxtmsyhehDn/Ha9L3cy8n79UnITo0Z9ekcRjWroBHgZXNk1v+YuCuVvO+0qDecn9cNxSPvm9L9WDRiEmsCM3O/R7LGa8QCVo/1plzRD8oIhfs7ZzF4jm+eXDcJ2aUtc9d+QFe3x7CX0AewuP8bfH8n7/CDjNP/5rNnZgsRjP3H5NzeyJgRy7iQkvuZsWRRld5fLWd6m/I8hqGDIBQfU/tRNYljH41m0raI3CPCyJRv/gY/LOlD7ccp/jL78agknVvG629v5GaGYWgm2z3BK3PmMal9pX/lyKoSvpmRvRdzKTvvK1a0n7uVr7ralsZulYrHMKoqfWnX1jFltnZgXq7Wc8xe+RmjNQPzwkk/vY1fgzINgnnUDG7+9jtni7N+oxLKrg2nNCahqCgxJ9iw7z4i/U14/OXgt3ULl1IMz2Y1J4Kdm0+QJIYxBKFI1Phj/LL7PgaXThSSL25j243HK1fD3MeTdWcb783YpBGYS1hUasPEZQuZ+i8NzIXcSuA3Vgj7+S16L7iqmf4BMo7Pz2b7x22xL/6dKbosP5a//wNX8z5vkmScmg7hs0+H0MzJnPc8KhkJCWjcRAOgpCaSmAVYmXGTuTaQRFyCsfBbISk+EZWqxbRxQSgpKgnxSYY3wH+9lpOQSLIKjmLo/F8om5PzXmHC1oRHDDRIyDpLrG1tsC3vROXqNahT150GPs15tk0DqhjmMAp5qIkJJOqNXMzUJBISFeDxGTo36/Eowfw0+1tOxOU9C2XsvV9i7hdjaVdJhOX/FcU/cq5Ec+zwDbKNjjopJJ8+xtnHpTi4VX2GTHkJT9uHOmLJmtovTuf7RcPMHJgDSDh4e1PTQqvjl7Cs641ncT7p0dWikbed9oki2+PdoMZj1JUKgjE6nmj4BOU04ysZ1/qePI7ZW4I5qSj6LNKSE4kJD8bvzDG2/7KGT6dNoEeXIby1+ABBWknCwj/kqt40MDJJSir3BA3dH6+riVmPR65Fn0mD8HF46PMkSyq3G8+KZeNFYP4fU+yXGyX6JIf8coyMSP31N8lnOXwuvbh3xUxkKrZ+gyVf9KO+nYQkO9Hi9fl8/8Fz1Cqm0Wtdvb68O9QbB/nhyEFCdqjP8Mkv416cv6LkQKcJ4+hU1TJ3vq1kSbXO43ij3WPxvEMQHkGmWq/xjH/KGV3uEx1b955MG96o2B5OCY87FSU1lGNr5jF48Fy23c4s7R0qu8o1YdS07rjnecog6ZxpNW4sPSo9ZnfAZj0eifKNB/P1opG0qCCDbEf9AR+y+rOX8bITT2X+a4r5Vkwl9rgvV4wPm/9JSeLE4ctktG3F41H7Q8ap5WiWLHBhc0wrBj9fvXgv3JI9Tcd+zaanj7L72F/VWqp50/aFdjR2K/5pixbVu/Dp+voc33OIs39Va/Fo0Z4urWv9O2eMC/9N1h68+vVqmh75g0OX7hKfY0tlrxa88HxTqj0eHZNQqlQy7x5i3ls67L6fTmdX0TkaknFpO5EfN7Rn376zXI9IQ+dUk6YdOtPO0/ExfApr7uORsGvwKgsWO/BzgBcDenog4vL/puINztV4fA/75c41l2QcHe1ITkh+KL9PIf6ELxczW9G6+MqOmJmEY9M+vFZi27PEtXEnhjTuVGJbfJhkV5Nneg/lmVLZuiCUEJ0jXh1749WxtHdEeDyp6CMO8PmidrSY84yYo2CEddWm9BzWlJ6lvSNmYu7jsfXqzkgvM32Y8Fgq1uBcjT/D4Yt5qozIdej9WgN2LvidyIfmPShxpzl0OYvWLcXDY6EkyOjEwJYgCPnQ1ezD4u8G46kDUNFnZZAcH0lIwBWO7d7JrnP3NSbrK8Qc2MSuMW0YUPXf3smIflQwI538GD49KR7FGJyrJJ48xoU8PZfs3IAWXZpxb8V29iU/9JoSi+/ha2S19DFTiohCWkQAFy4FEhKVSLpihYNbdTybNKFRNSMTHB/5kalEBNzgxt1o4hMSSUjNRrYuT8XKNajXsD5PuFmX0dqUKpkxd7jqF0RweCyJ6TnIVrY4ulWlrlcDGtRyKOaa3tkkBAdw9cYdQqOSSMsGS5vyuFarRb1GXrg7lyuW+tFKajhXzl3jdng08Rk6yrvVoH6zpjSobI0k2eNQXgaKXrpLSbuP/0V/bkfEEpuUhWzjgGu12tRv7EXtCiVQLT0rkWD/awTciyEuLok0xZLyFatSt0FDGtd1Mqk9Kekx3PIP4M79BBISE0nOACv7ClSuUZcGjetR1c6cZ3gxtNG/PzcyiCvXQrgfm0B8ciayTQUq1XKn8ZOeZj4GbfrkcK5dvkFwZBzxyTlYOVTApXItGjbxpIptMWw/O4Fbl6/gdyuC2NRsdDYVqFLXm2Y+7lQsbIeqTybk6hX870YRE5tKjoUtTpWq4dGgAd7V7At1EVXSIrnpd4ObIZHEJmeiyFbYO7tR092LRl5VsC9rV2ZdOcpXcKTCQ/tV0a0ytT2fpF3PPvT54V1GL7lMcp4CG2rWDY6fTaR/L6dC9G1ZRPmf49TVYKJTFKwcK+Ph04KW7vmnSRRXP1RS/Wgh9sys7VyfHI7/1ZvcjYwnLiGFbAs7KlaphVfjBtRzsy7+NQ6ykwi+epXr96KJi09Db+1ARdcqeDRuSD2XYrhGqplE37zCRf8QIuLTybGww6V6XZ5s1pDajsUVGqpkRAZw7tIt7kXGk4otrjU88GnekBrlZWT78pqLMBZmO5nRQVy4cpvwqDgS0sHawZmqderRuGFtKmrP/C9Tii84V5M5efgSablXzcG6YWPqOzbgnrcl+89kPTSqrhDle5xr7/jgk18/kuPHly+/yU/hD/eGFjScsJo1Q2sgo5J6+xArF65i06lw0pTcNweSbEP1p/sy7d0htKlUgCtBTiKBvvvYsv0gR8/fJCJFrzm5VZKtcWvciUGjh9K3hZt5g13NYwaQqdT3K7ZPbWLkh8wk7MRWVq3Zwr5LkQbfxZ87rsOhdgte7NuPwb18qGxwIVeJ3zaNrnPPYFBO3aopM7Z9SR9XIyd6dgwXtv7EqvX7OROaglbFKUm2pWqzjrwysD99nq6OrRnaTFbEWdYvW8P6P64Tnank+r0knQOe3YYzbUInHB2KsjE9cX57Wbv6N3aevEVclmpwXkgWDtRt041howfS1bO8mW/cMgk/s5v1m3bzx+lAotIUw/NS0uHo/jR9hg9h0HMeOBrZASUllNN7drJ1ty9n/MNINDJHRLJywrvDy4wa/QrtauaThF3SbfTv40gM4o/Nv/Lr7uNcCknSqBAlIVu70qRbP0YN785TVXLn0CnBPzO0/wqu5V28VyrHc/N3ML/jI1q1mk7Isa2s/WUXBy/e0/weJasKuDfvwMuD+vNyy0qPuHHSbnuSw/Ms2DODtlaAPpZzG1bw9ZoD+MflnXgvYeHsRY83JjGxV8FzV7MiL7Jlzc9s3HeJ4MRsjfPKkorez9Jn2DAGd6hZgDarknr7KOtW/cJvh24QrVlTV8LK2YNne/Zm6Kudaehs5NKkphKw43sW/XiIS/dS0Lm406bnUN4c2ooqJb5qmA1eA0bQ/dd3WJ+3b1azCbkVhh6nB32zZruwpMnEH1j5alVkFBKvbefrz9awwz/+odrZEtZtp7Pny+cx7LKKrx8qnn60EIvw5VHUdp57d2K5smcL67ce5MS1CJINC5YjybbUaPUiQ0cOoEdj5zzX2qIej0LSzcOs/3ELO476E55qGF9IsjUuni3o2qcfg19sSMVHRG2a/ZhclUEr1zKxsQWQRdixX1i4eBOHbieTNyyQrNxo1mcs743rQC2zpRnrib28neVLN7D7wn1Sc21UQratScfhE5jUrzwONjJkFXL1FDWFoP2bWPXzLo76x5BuEPNIyHZVafliX15/rTtNKpa10YAHii04V5PPcehcWp4TzYJ6TepjJzvTpFltdGdu8vD5o9w/waHrY/BpbOpuKYTeuUeO4oD/us+YtfwE9zKNVCxW0gk9tpZ3gmOYv2oy7Z2NB5YXt/7It2v2cCFSYwEgg8/NIPLSTr4a58vBEXP4cnQTKpTmzVl2OHvnz2TettuaSwD/Q9WTdOcU6+efZsuPLXj17TcZ2bF6kSfmKjGn+WbKR6zzSzJo/Lk2r6QRdnYHC8/tZV2THkyY8hrd69kVcpRAT+TRpUye/Rv+SRrBKqDqk7ix/RteP3+a1hVkJHjkb2sgK5wD38xl3sYbJOZzcGpOEreO/sKskwfZ+8YcPhrkbZZRgZyos6z66EtWn7hvZO2Av3dAT2LQUVbNPMHvW19l7kfDafnQ+a4k3GTXD6v47tez3NMK7vN+XFY8/ntXMcn3CH0+/ISp7VxNuOEohjb6zxtSubn9W+Ys3M0NI7/7X3+IkhHFhd8W8cae7XSbPJv3e9Y2y5M6JeY8382Zz+pTUfn+JmpWAkEntvDZyd1s6DiSD9/rTSMTbxLVtFDu3FdoxWEWzPqaTdcSjbQxlZy462z5+B3uJi9kyWD3/I9VTSdo+9fM+GIfQWn5XBzVbGL9D7J82nH2PP8mX7z/Iu5GO4wMAn/9hIlfHiUs/5OVrLhADqyZz6FN6+k4bAKTBjWnUq6AO5ubP07n9cVXHoxUh19n7/L3uBzyPj/MaU+Jz8G0rMUTtXVgMHCikpKcUoC+RU/U/VgUKhG5/3Pe+GAvIQbfk0x1T3fDm6ti64dKqB81lVnbuUL8lV+ZP/d79t9Jz3ffVSWNuyc2Me/UXrb0mcL8yc9SxRznWVY4Bxd/zMcbrhFnrFY6f8YW0dePsXbecX7b0IXJH06gh4eNaddINYaQkDQU9yi2fvYRC3bfIdVIE1ezoji3fi6jwjNZ/VkXqhX1WNVEzq+cw7srLxKreZwqSloIf3w7jYsnW1GjkPGyEn2O5R98ypqzMfmU7lZRUsM4tXEhZ/YfYPhHcxjb0qlMZjwU2z6lnvXlTEqeb0hXBR+fSsjI1GrW2LBusBLJscOB5B24ejSF1BtHWPbeOMYuOm70ov+ASnbobuYvPkWy5rmSwN6ZrzFq/jbOFyAwz/VWJZGL389ixubQUnnQ9+dOpHBm4bt88KjAPPebyAg/w5q537AroohrfmYGsHLSbH68mn9gnnvz2cRc3MLHH23hluknAKASd/xr3nj3V67l23H/+bfZ4ac46p9h+gUl8xYbpkzg3Q3X870g5tpadhS+i6Yx+efbhk8fTJQWsJmJw95lxfFHBOa5dkBPut4OZ/uHuvP0c8wfPJYPfjxNaAEC84cpqUFsmvk+K/1NKRln5jb6z8fGcPTzN3lt7k6uP/J3f0hmJhYVKpjlCVf23T3MGPEuK07mH5jnomYQcmAJY0Yt4Ei0ie1NucfZTUsZM2IeG/2MBeYP/30yF5YvYH1wPj2SmsKl76Ywat6e/APzXO/JJGTfl7wxay9hmm9RiN7/OW/Of1RgnutDUVJD+GPppyzyzb0olBp/mOXfXzVIIUHVc3/vCtZeMVjzu/ipmaRnaL0gobMoSJShEnc/mkS/tUz5UCswByQb6nlWy53SUmz9UAn1o6YyazvP5u6ujxk25lv2PSIwf5iqZpBlUwEHc0RN6YH8NGk8U9f75RuY594BhZSbu/jw9cl8e8HYgmnG3ptDkO9PfDTqLT7eaTwwf3hbMUeX8PnOmKKtAK6mcmn5u7y94oKRwPzhv9UTe+E4lwwWYXq0nLD9vD9yOivP5BeY59oYSvwVvp88jW8vGT71KAuKKThP5eyhc+SNzWXnJrT0+LOLsfBqStPyeTev595RX24WIqrNCdrDmv33eOQ1/x8KUfs2sydK40SQKvDsK52opivkMKeSxJmlK9gbVzo/uT5wM1/9FlrwQOFvsgsdp07if0UaFlAI/305a/0L3un9s3kHHyZ80A+PQjzPUSL3Mm/2Du6YfNAmUOM5PH8mX5yI1UzRyZeSxLkln7ImoPABhD5sN++/9S3Ho7RTq4yRndswefYreDw8dGTzJL17umNZyFNcTQ9gzYLthJrQj5q1jQKoqVxY/C7vbrplwk0oIFnhMXAGk9tWKHIep5p0jq8mfsn+cI30j0e/m/Rb23lv8lquaQZ4RijJnFi/iUsJBQ9S1Ax/Nm68aiQoUwjb/glTVvqRaOp1UVWIPvQN834LN7yIZ1xm1aJDRBb4Dv0vkiW1XprK5PYOuX6fnJtXuZJm5LOUKC5fuV+0QKIQ1JRrXAzSGk2QcXGrWIC8fJWckMN8/vF6rqcbOTaLWng+3HiLsR8qkX7UVGZt5yqxRxcw/sMDhJp0jBJ2TUYwb3Qj7Ex4lyYlhn1z32PBqbiCD149/Paka6yeMpdNIaaMYilEHNjAlpupBW8jSgon1u/kdqEblUqi77fMXH3DtN/N1K2kXmHJ5M/ZE2Z6H6ymBfLDh6s4VwYXwSyetJa0Sxw8lZLnJJCw82lGw7/7mHINaPlkOXYezR3E6UOPczhwBPW9ipYLJEkWWNtaoU9PJ8tIC1Az/Th6KpE+GpN2bJsNZmyHQ8z8I/6f45B0dlT1qo9XTVccrRWS7l3n7MW7JGrkqSnJp/h1z326vFqlhB+Z6Ln5x2FuGdw+SsguTzJg5Ms8414BOS2WkGsXOLTnAKdD01CwpE7f6czsUqlo+6tEcXjfVQyvMzIO9bsyalB7vN0syYwL4/q5E+zZc4pbSXqQ3Xh+xgz61y3EWKaazLGlKzkab6QXkWSsXetQv7YjSkIYgbeiSDX5qqaSeGQZn+6IMLwgSjKOdVvT5flm1HMtR3ZCGFcP72P/1ZhcN0hqVhDrVx3hlfmdcTI1KtSHsnHuYg7HGAvIJHT2VfCqXws3mxyiA/3xj0hFlSvT/b3J9DCoGmFJvVdH02v7FDb980heQrZ1oV5DT2pXdsKWVCJuXOJ8YJzGjZ5KxpUd/B7wEuO8C9dWi9ZGVZJPr2D2T7c0qmX8/fnlcK5bj3rVHLFIucc1vxDissDuyeHMG2OGi6yayqklX7EpRPuiIMnWuHnWx7NSOdLDA7kSGKNxY6KS5v8Tc1e3Zu1Yz0Km2EjIVrbY6jJJy8gxcsFXiDx+Av+cJjTJ0+sr93czf+FJYg2aj4SlsycduralqbsTlhlx3LlwmB2Hgkh4uBGoqZxd/QtnXpxIK5sH/zvr0gEO3Ddsk5JlFZ4ZMoiXm9fEQU3h/p1rnDywn/0XI8lUJWwbDOajd1oapgWq+UcJj3jZ/JR4TixZwxGtRztyeeo3qFagvjTn1lH25fO67OhOvX8WsynGfqhE+lFTmbedK9EHmT9vD/c0rtl/fpiMrWtd6ntUoryUyO2rN7iblIPk3JrJc/rmHuAo5PHE7F/EZ39EabdTSca+mheN3J2xSL6H39UQ4jWGgpXEcyz6eCutlvahZiEv2JKuHLbWkJGWhV7VTjfJuX2SY6GD8ahViI1kXmP1wj1EGDtHJEsq1vHCw0UmKfw2QWHJBRz1flgGl1d8wU9BWYZ9sGxLjZYd6drGk6r2KknhAfjuPsDZsIef9KjoQ3ex4vc+NOtftUyltxRLcJ5+4Rgnk/I0cMmKhi0b889K81J5WrbxxvLYhdwXfn0oR44GM9rLvVDVAKRyVWk3Yhxv9HkKD0cL9Ml32LtgNh9uDzEMMNRsbvrfIaeXk+HjbcmJ5994lU3Hl3LdyYee/V+mT7en8Kjw8Femknjpeya8uQ6/vCM6ag7+py4QP+BFKpZo7nkWIXciNO6OLWg+ciYT+7j8E+S0eLoDfUaOwn/7KhYfq8rbbzbTmHBkIv09bodojOxa1OHVWZMY+M/smCa07vgiw8YFc2DVMrbpBjCjk0uhGocSsY91+2M1RwQknQtPj5vN7EENcf7rw7Oir7Fz1SK++S2gwI+EybnFLysOYJCBINni/eocvn6zBS4PnbB9B/Wh87zxTN4e/tBFVCHpxF4Ox3biJRdTvmiVxMNr+P6C9uM3yaISz4yewvSBzR9M6FVSCNq/jp/DnmZSWyMVI+x8GDmmDftnn8aqUWf69utFz/ZeuOS6AKUT+PMsXl941nBUVX+Pk6fCGOtd06TfzSxtVH+bXxbvIkyz45ex9+7O1PdH0a3egwlwWVEX2bjSF6dh/XjCDInmSsh2lm2P0LzIyk5NGfvFLIY/WeGv7ecQffp7pkz7hSsphpMHAzesYU+fj+hpStK0JFOhQQ/Gv/0qXRtXwkbKJPL8RmZPX81pjQBLibpJQKxCk1yrFmZw7ocfOZG3v0amQvPhLPhsIE8+/By/bz/6/T6bYfN8cwXzSvQRdpweQ6v2f/fwCrHBoRh8LBJ27Ufz8dj2D4Kmlq3p2m8oEy5s45vvAmg+cyD1NXLYLeo1pIHNTo5qDcPJLjRuXLnYL65KTiYpcRHcunqWvRs3suVCtGZAIbs+y/M+ps+mk6xc8en+Cv27NMOrWnnUpPsEx5en4d+XnWLsh0qkHzWVWdt5Bhd/WMVBzbQJCdmpMUNmTGZk+xoPJjmnh3F03c9c9hxJT3OUxczy56cVvmjtgqSrRIepHzPn5QfzC7LuHeGzSR+z5Vbe9FqV1Iu/8L1vVz5oa8ocLQkLNx8GvjWaQR3qUdFKJS30JMtmfsRP1/LOEQT0wfgHZEAtW60Py4dKwuGNbA3VfsorOzZm2NyZjG7zd/EMPQk3D/PDV9/y0/lYjN075aWE72bpb6EGfy9Z1aDH7PnMeL5qrgGPgQNf4JvRk1l786FgXs3g8q5DhPQdSJ0yFJ0Xw65kcPHQGRLynnw6D55q5vjQSSTj0rIl9QwicD13jpzgjsmjIBI6t1a88913fPna03j8VQpIV74O3SaOoINBCg2AQuL9KIw9KZVr9mL20m/Z9uuXvPvq03kC8z+36dhkIGO7aAWVKtlBQdwu8cRzFc2bYBSiQu4ZPl6SHajf6x2+/aIf9cxSw9LYY+dE7t5NNOj4ZbvaPPfmpywe9yT2hboxULj3xwGuaOZqWuI+eA6fDXlwQQGwcm3AS1PeobcJowFZF3ewLciwGoZVg4HMnZD7ggiA7Myzo1+haZ68ETXTn9OX0wu8XQCUKPZu1u7QkR1pM+VLvhjePHelHdkejxfGMGtEo3yqdMi4dnmTxSt/ZOuqaYx4Pm9gDmDDE/1G8UptrVtlPSE371DwzHPztdGsCzvYclNrxFrCsu5LfLHkHbrXy12ZwsrNh0EzJvCiWWpP5+C/fSf+WuedXIGOk99nxD+BOYAFrk+N5NM3m2me52rqObbs1bqpNkK2w+uVOaz77h1eblIJGxmQylGp+UAm9XPXHnXRRxMRmXsLatJJft0bZbBdyb4FEz7ME5j/dRzVXhxOH/c854OSzPkzAbnmC6naHRFZEaGEG5w0lrg27cPcpe/Rq5r2sIzk3IHRQ7wNz2dJxrXDawxpYv5yLfo7PzHoqfY0bf7nv+atXqB9t2G8Nm0JG89rB+ZIdjQf2p+WNhqv5UOu0IwJ363muxl96dzUneqV3KjxRGOebVnnQbBWbP1QyfSjpjJnO1eTTrJxl3bqk2Tjzehv5vNmhxq5qw/ZVKPtqClMMDbAYaL0szvZEaoVFMhUfWkqc3rnnvhrVb0d0z4eTAMrja0rsRzY6kt8ge+LZCr4DGLxui946wVPKlpJgIxtjacZ/1YX7Umuag6R97Vv2PKlJnB0z1nD+SEAcmV6zpnHuDYPV7XTUaFeJybMGvDgRvSR9NzasYMLBo/pddR6ZSrv5gnMAaTyjRg+rI1BH6wPOs+5mJJ+9JY/87eqTD8OnUww+DF1tZrRMk9jkas1oYXhsuLCAAAgAElEQVRGR5xzy5ejIaZ+URIu7fvTv77GXaStJ43yXkz+oqanGg3OwYoaDb1w1ejz1axk7t++zpmjx7mTrl0DVU2IItqUOXNmUQ73J7Qep+oJ/uVdBk1cwe8XIjXSTsxEV5Mn6lgYfh9KDLtnjmbs51s5edeEvLdHUZO4eC5I805bsmnGoAH1i1x5BnLwP3YGg9RnyYInu79AbSOdiVyxHl6V8nwTaga3b4aZNFlYTTjH0Ssaj+2QsPR6hXf+V73wExtlN+o3rqzxHankpMYQ7H+JY4cCSSgna5zjKlnRUdo3DZrM1UZz8D922vD3AJAr8NzY4bQo8iOgR1BCOXkyQvN3lN068EoHrYu5TOWuvenopNHtqjlcP3Ge2IK2SwtPXh7+DFUNfniZWg3qGZm0lk5KnoafcekkZ/KO5CNh37orzxvM2P+Lrib169nmOT6FuKA7PLi+ybi418HwUFWyrq1m5LAP+W7fDWJMmiFdDu8R81n2bk9a1HTAStZh4/oEHYZ/yKq5z1GpLIx6STIubccxs7eJj8hlV7rMmMnQBvb5BIHF2A+VSD9qKvO284yLJzTOdQCZ6i+NYYh3cR9hNv4nzqOZNWRRlx59fDRT7SzrdueVp7RiDJW0C6e5UNCxHsmSFgOG0NLZ8My08vTGU3MCkkp6iunzx8jy5+xlrWIaEpb1ezG0jUPRb3aUMHx9Qwz7YIvadOnRwMj5KmHv5UmtPJcaNSeYm/lNmC8FZk9rybrii6/BHYhMpZbNMbj26urSvFkFfgjJc2emv83hY2EMq1PDPHcPsj2OxmpH6fUFChSVtEj8Tp3A99RFLl65zo3gGFIf8exFJZ20NJUCFxg2Cx0ePf5Hyw0LDVOL1AzuHvuZ2b6/8HnVRrTv8gK9enWkWVUzLrAgu/F8v3Z8f3G/waNXNSuKsxsWcm7TMtzqt+KFbl35X7cW1LYvwq+sDyUwOO9I0p8sPHxoanJytwYljoCAaMPzRM3m7Kd9aP6pKR+mEhP95zyGgqZt5QQFcFNziE6HZ6d2aA5qm0wlKzqQU8dOcfLcZS773eRWRArZRkY//3lXWhomPgfQZkobNfZ7AHL5FjzXKr8Ax0wybhNwV6szl7Bp1OTB3Jq8rBvQoqEl248aPqbOCbpJUA6agwGmkB0ccZAgzuAVPXp97v++6x+EYbyikrx/Ns/uN227SmwMsSpU/uu/rZr25BWvPXzrn+dYVYXkwIMsnXGI7xxq0KLjc3Tv1ZVOjVwenXMvladB74ks7z3RtJ0rCZIl1TpM4Ks53ahuUpuUKPdkP8a0f8TobHH2QyXRj5rKrO1cz93rtzTOdUCuTLvO9TFbSW9jlDhuBsZpH49zI3xqG7kOSg74NHfH4pgfeafxqum3CQjR07mQ837+YeVAeWsJrdn6esX0oTQlPJg7mlWfZKo2bUJ1cwR2GUH439Hog3Nusax/R5aZ8llKCjExWVDMyzGawszBeTZXD580zIdDJWLD27TeoPUew0UTUHMIOHyS8EE1zPMjokMu5Odk3b/Ar6vXsX73JcJMLDmHqqBXVCj+UCEXuWp3Zk67xKgPDhGudQOhKqSGXWbnqsvsWrOUOk93Z/joAXT1dDDDzZCEU4c3mNUnkMmbgjUrc6hKBpF+h1nrd4R1i6vQons/Ro94kSYuhSnTEk+s5nM9CYvKVQzLdRaGGsv9aHPdVatkZWmNghuXHhWtkbsLSLbUcS9qnq2e2Ct7+GH1Jn4/EUKSiRO8VL3e9IoRmkxoo/n8HnLNutQp9qssKDHRRGvenMu4VnUzHmRKNlSpWgGJSINzQEmJITpdpdAldP7ZBbmA54RCVGQRS6U9RM3Oyj1nwMKdwR+M4cLYRZzUfLyikpN0l5NbV3Fy21q+rPcsr7w2jEEdapbseEZRSTI2VZrRe8wYXu/qXoj0PIkKT3hQ+VE/WnH2QyXRj5rKrO08n3PdoiYe5hnheMQuxBIVo308usqV86mdLuNWtRKWkp9hGpUSS2SMKUM9xrdRoMqfBaTExxp5oipTuZqbWQZdldhook2fQWqESlZmFiqFXWPF/Mzb5LJvcOiY1p2uiqooKJr/NIJzVHJu+HJUY6Z/ycng1vZPGdh3Ep//eqFAi7SUHTJVXpjOd5/1o2lFjRSTh6j6ZG4fXc+sYa/x5tprJJnjICUnnp68gEVjW1FFK1fuwdZR0sI5vXEhIwe8zaKThchty8kiSzM6lLCytjJPQ1MzyTBbepKEVTlT9kslM9PIxiUb7IqypGp2BIe+GE+fkV+w7liwyYF5qcnn95BtbM2yyuwjZWUaKUsoUc46v6W2JaxtjLyuZmHspy4uWZlFrbz/gGRlRd7mbuX+El8un87LXuWR8+0KsokLOMjyaa8z6L3tBJlSWrKESZKMlb0LdRq3olv/13j/6+/ZteVzJnYrTGBuguLsh0qiHzWVmdu5sXNdkm2xty6RTsPo8UjWNuS3orxUztrI61lklqWyl39Rs7KM9o9W+faPJsjMMGG+06OYel0ufmYdOc+57ssxMwXUavYNDvtG079vEUv7FYqee7/PZcy8E8RqLnlvgWPNBrRs3pgG3nWofPdX3l97zeCRU+mypErbMaxo8hwHNv7Cul+P4BdtfMRWzY7mxOLpTLVaxOL+tYp+YshONB/xCZs6n2Lzuo1s3H2ZiHRjNzgqSrwfa6ZOx2LpN4xtaELun4UlFrLW+nQqWRmmjVAbZ0U5s0yWBZBwcTFtRTIrKyMbV/9KmyoMJY5Dn0xi2vZw7TxT2Y6qDZvQokkD6terTsKu+Sw9UVYWazD+eyjp6X/OpyjuXtaqnJHRcZXMfM87lcwMIwubSVaUK4FR/4dZWVkC5omEZWcXzcpU1nWeY+YPzfnfrs2sXb+Dw4GJxqsxqBmE7F/AOMWGtR93LvU8cl3NPiz+bjCeOgAJSbbAxt4Gq3zvNIpLMfZDJdKPmsq87dzYua4q6aRmqBjcWZqdFdZG2reakfHnUycju6BmZhhZt8SKcsW+36aTLCyNJIioZGVmomKG1EOrcuZLQpHtcTGshlCqzBic53Dj8AnDVYwLS83myuFTRPfpVeIdtBqzny8XntQIzGXKe3fnnalD6dao4l8XZ5WkHfvL1B3Xw2QHd54b+R7PDRmL/9G9bN22m31nQrVHSZUkzi5bxq5OJpZ0M0rCtmZrhsxozcBxtzm+exfbfj+Ab2C8ZpUDNT2QtV9uoeuqARhLvzPcRHmcHCQMi+Cq5ERFEaNAkYtzyE64VdRhuOKOBV6D5/Lec84mlbKyq1LHhIeQErYuFbGTIctgZcQ0bt+6j/KM6XMzUk6u4rMdGoG5ZE2d50fy7vjuNK/y91yEbI6dLoHHvgUlO+Gq+XuAcvc2d7KgRjHP7ZIruuJiIWH4BSpER0SRhRfaxToyiAhL0C4vZu+Cq01J9iQyFV2dkUnOM6lKolzzESx6syUFL6AmITtWMd5X65xo2GMUn3UfzP1LR9j2+y52HLhKuNYTSVUh+uAylh5vzexni1yNvmh05ShfwZEKZeH0L85+qCT6UVOZtZ3LVHR10jjXgZwQgoL10Lh4ln15sAsV/zyeu4bHo4+MIEKBaprfsUJ0eKR2cC5XpJJLWZgJnZvk+Oe8l0iDVxSiImJQKMgCXfmTnSviotPog+Wq9Jr9Pq8UOIgApHK4FmaNlWJkvrNRf4vDx8LNuGS9SvYVX47H9uRl15K8YClEHdzLSY0aQLqaPfns27d4ytjEtbLMypn6nQdQv3N/JoafZ/OSxSzbF2xQqUZNvciBU8n06OFo1hsOnWNd2vYfT9v+o4m+vJsVX65ki39SnjQWlczrxzga1o/aNQrYsHRVqFFVh9aU/pxb17iW2oeq5Yu487IL7nUdkS/lzVnUE3orDrcJrTHLvYwRujru1NXBeYND1BNw4AjBgwdR16Ttp3Jy+2GNr0zGpfNUls/tSBns7x+QXfCo64B8yTANSkk+w76TKTzboZgnhdrUwbOmjkM3867Sp5J+9RL+2W1pptXXZ1zj7DXt0nAW7k8YTpovVjpqPlELaykkT4lVlezboaTUHERzc+dpSNZU9nmB0T4vMGpSCEd+XsZXa04RljfyUOI4cvAqWc+2MnxCkRXN1WMnuRSags7Fg1Ztm1PXLGuql3HF2Q+VRD9qKrO2cx01n6hNOemuYXU25T6H//BnXOPGhVwErIBkZ+o94YR80bB0qRLrx6UQhebuWpWckrl4/jZa64FKNnWol7f0SBmgq1yNapYSgQaDgAphfteJUTyLPuhqUxuP6jKHb+WJOtVogqLs8Opm2vobZY3Z9l0f5MtRjeoFsuMLLPQ9zIVz+fw79D4dNRLI1MyrHDqpPcpUfPTcvhms8dhVxqVVe5ppBOZ6vWm3JLKRmW+q1uTYwsqKJDhCKyNLwrpqcwbNW8DMjhoTQNVsIiNiirwf+phQ7mmu2WuJ65M9eW/pLF7WGopRogmPNOHxi+xKfe+KmieymnKGX/do145WEyMIK3CCvSUNWj2JYRlulbTTP7PyTHKxnqOymw8t62rdR6tk39jIV7+FGk+pUnLI0Vg8KOBWhuE+S1b4dH5aIzBX0OvLUg1YY78HoCSwf+lqzubz2+pzzDCEINekTasqmqM/SuQhNh3W6rcUIvdu4aBWLTXJAs/WzUr8psi2SXMaaSSzKvFHWLEuoOgJL2oqYSExmuenbF+LDq9/xLK3ntTIp1VIux9JYp4vMefeH3wwcDDDpn3FgsUr+GL2NPr1fptvzyeVkZSr4lSM/VCJ9KOmMm87t23SnEaaKSAK97Ys44frxs92tYBV3fJnSf02zTTKiwI5t9j26yW0VpHPubOTTae1yhlK2Po8RTMT6+mXCLsnaFBHq3dUyb68i61BWj2CSnp4eMFL8+pq06qFq2YMc/2X79mnWYPz8WGmS4Ge20dOYFjVRsKy4ZM0elQepV1DmnlpBB9qJhcPnyahhHtd7WoaKglBQdzPdYw5RJ1ew7tLzpmQby5hbWukLnp0GPe0Wqep1BTOfDOV/v1GMW3NKUK1ippLNtjbaQV8f07YKJLMm3w/+XX69J/Gkj/uaC9EUM4Oe82O0nhenjYL6j/TUjuoUVM5u3g2Xx29/9DkFJW04EN89vbn7Ddcr9wo+1Zd6axRskDVh/HrjOl8fSTcyOQUlbTQU/z47XZuFHbunVyLLi/W154QpCRx8ovJTF17mehcQytZ3D+3hQ+HD2bCpnu5LyxqtvYkIjWb4ICQ3BN5lESu/PQhn+8vK/nmf7Jv1ZVOmsOEKtm3tzB5/DfsuZ17xTsl6Rb7v32X3q9+w6mUoh6NBfV7dMVbc3GQeP74/CPW+j38ZEgh9txqpn99RrM9SHbNeKlLyS8fLbu2pUeb8hoXuEwCVr/HpFUXiDLSuSlJd/hj1Wp2a6Qd/PUXRB9YwMh+wxn64RbOR2o1AAk7ezuNmxwJKW9evz6Yn2Z9wY47eZbfjr/C9zO+5kDBV2N5bBVfP1Qy/aipzNnOZddn6dHGXvsGJP06y996lyXH8nx/OfH4/b6Y0S+NZ7l/0SdP27Z8ka6adTYVwn/7nDnb7uQa2c8KP84XM9fip1X2THamw0vPUBpVLh9JrsHTbaprDl6oWYGsnvElO+88fMORTcSJ75k4YyuaazRpsqRx9+eoa6ExuBBzhHlvfsmOW8auW1lEnt/G4p8vUeRLQTExT1qLEsqRIxrF4NHxRNNGOD7q5JFd8GlSDd2F4DyfoZJ+3peTSS/Q7ZEfYi4yrpVckEk12JfMi8sZOSqArs94UEFN5O5lX/44FUqySUsXy7hVckHGsKqNknCAD0cmsa9NFyaM71DIHD+FmIML+WDjXbIUlf2Lp3PoZw+e6dSWp33cqe7igFV2HLdO72D17njD0QDZkXr1ilDqSE3h7OKPWHktnWz1DKumn2Nj7eZ07tSaZt7VqVTBGiXxHhd2rmdDiOEZI1nXxdPEx3TlmnblxVo7Wa1R81RNDeDnSYPZVcsTr6o25MTd5frNKFJNXW7atinDhvmwd/55g8asJPmxdvIwdnk/RcenG1GvmhPWajpxEXfwO3ea45ciSFVtaOHSjKV9CxOAyVTvNYQev0xls8akDjUnkiPfvM3JdbVo1KAWzhbp3A+8hn9YKnoV5NDF/N7uY/73d602uSJVXHUQZjCkTtAPUxgW8hztG7iiSwnH3/cIxwITCryccomxbcaQwY3Z++Ulw1VvUUjx38J7/fey2LsBnlVs0cff49rV28RmqSBZ8MWqzvz4ViMjeeEFI9fuydjuvzPhN8NVB5W4s3wzYgCbGzbEq1I50sICuHQjinTNCeaWePQdSrfSqFcnVaDza71Z57uG63lu2FR9LCeXTealrQ1o26Eljeu64WilJzUmgsCr5zh2MoCoDHAKqkXLjzsaTAbV393BnE8OEpmjEPn717y+52catmtHx9aNcK/ijL0unaiAk2xYfVJjUTSZ6p51c1U/0QcdYOc1jSc+gBJ3nN+PJdKpZ4UyO//HLIqxHyqRftRU5mznkhOdh7/E2uM/ctNgcEJFibvEqolD2FzDi4YerlhnxXDL7wYhCdmoSFz7YjPPrXgVj6JETVb1GTzqaXZ+cNRgMSI1J4L980Zx5sf6NHZ3xiL5Hlcv3SJGM9lcwrbJAF57pgTWdCgUHfVe7ErDH5dxWeO7zgrew6z+viz3qkctR0gMDeTGvWSTrzMWni8zquNOpu/LWz9eJS1oJx8M9GVtq2dp1/QJarjYImUmEXkngPMnT3EuOAnF0gPLZksZ7Vm28s3BTMG5cvc4h29pZETJbvj4VClAMKKjbrNGOK0JJu/6RWraRQ6dSqbrC2ZYUapAdHi0bIrrDyEYFJ5Rs4m6sp8frpi4OkcuMlXq1cVRvo7BgIOqkBh0mn2RDnQZ3YGqhRjA1ofuYPYnB4n8p9NUyYkL5PCmQA5vetS7JXQ1OtOjaWEz7xRiDn7NrA13H0z4VBWS75xhy8ozbHnk+2VcOnblGVNz+i29eHVUW36fecjwOwVQs0kI9uNUsGkfm3ffqr30Dm8dHccnJxI1FgLJIsb/GBv9jxl5fxrnv1/Noedn0KmC6WeyZNeMce925/TE7YRq9mAqWXHBnD8WbPCKknSGJV8f5tm/AyjZjRYta2Jx+ZZBZ6jqE7lxYDM3Dpi8iyVMpmbvtxl7eDxfnUvRfuSupBF+7Szh1/K+kMOdDd/ww/NLGONdhCxTyZ5W4ybR5/wMNoUY5pGrSiphV04Tlv+HYOP9Ku8P9y7efNd8WHr25/2RZxi19JphAKQqpEdcZe/PV9lr5P3xB79n9cU2TG760Oy8zJus/mApJxMf/DJqVjRX92/m6v7Nj9wnyaoePbp65Bp5U6KjNdbQ+PvDc4iOikflXx6cF2c/VCL9qKnM286t6g/gvUGnGL36puHc17/ek3jXj+N3DV4g/epPfP5bO5b21VqBu+DH4/rCBKYc9WfmHzEY3NuoOSQGX0GjG8/9KQ5NGT+9F7XKcFK1XLM7Y3ptY/zmcM21MFR9CveuXeBeUTYiOdFp4lt0uTKH3fcNJ5erOYkE+e4gyNfI+7Nu8dOi3fT8pmc+deZLhxl2RyH0qC+BGo8i5PKNaFavYPG/Vf0mNNaqNaqmcfbwBVKKuJemsGr2MgOftClwJy/Jdjg65F9PPNfnN+lIh3xGydT0u9yKKMyjwgwubNjAmcTCPWaUrGryytSBNC5slJBzh60/HCOqUKMpErpKHZj0RitMn28rUbHzBGZ0q4LGEy6j75E16jLnS1edl+fNZeSThVusSYk9yJIfrhUyj1fCsc14vprSBjedqV+QQuyB5Szy/TsvV4f7S/141rHgRyHZOOCYXyHe0mBZmwEff8AAz7xLyT+amhXEj5//xm2tWVYmkBxbMPGrd+hYxbIQQaGEdZ1uzP1iKA1LNW+0HF7DPuTjV9wLVSNe1Yfx66It3H6wFjwJxzeywcgo9yNJtjQY/hb96uQ+P2UXV+M5+ZIOF7d/e2D+l2Lrh0qoHzWVWdu5DY1Gz2V2t+qm77Oayvnli9lhypwoLbIrXd7/iAktnPKv/W/s7fbeDJk/i351yt5ob252tHxjKq96mFLX3PR647JLO2Z+NY42rrpCtH+VlDM/sty37M1ZKXpwrtzn2OEgjccRBcw3/5uxvHNUUk4f42xq0XbTJHIN+r0/nrau8iN+bAnZsT4D5i9n6aC6BS8NZOPDa288Q0Vj374+jNshhamabk2LdxazYlIXvBxNOVElZAdvBnzyGROfKsITCgt3RixexAd9G+Fq0iqHErZ1X+CDJVN5vrCP9mVnOsz4jFlda/Do9SQk7Dy68uH3U2hv4lKEkkNjxixexId9vHA0qWeVsK3eks4+zkVodFa4957N95/3f+TiUrk3bUW1Z3ryoveD1c9k185Mm/E8NR55hZKx8+jKB6uXMt7HhG2WEMm5BROXLWDaC7VMCCwlZId6dO/TispmKHRgVasbn676mJFPuRZ8cU/JmhodxvDtd5PoWCrLL+YhV+TZKV+zYupzuNuasj8SskMd2nfwpPxD/69Cx2msXTiCTnXsTApAJF1FWoz6iIWveZG3Sp7uiY5089a+0MtObejxzH8kOKcY+6ES6kdNZdZ2rqvE8x8sYvHYVlQ1IUKXdM40/V93mmnO6DSRrSdDFy7m0/4NcCroYIskY+fRhfdWfMmEFuatplZcpPJNeHPhLPp52T36uidZUb3jm6z85EWTK7lY1+vNV6vmMrS5i2kLLEtWVGrajpbVirmMZiEUeY+U+yc4dCNH466jgPnmf5Nd8PHRyjsHJeUch86l0bFdwavuFpVFzReZv6oC3326hJ9PReTJFZWQbdzw6TaQCaNfpLGzjiwrd8rLNw3yyLTJVOo2g6X68nywcA83EvW5vz81gzu37qO0q2V6IKdzokn/d1nX/VWO/76NLXt8OXvDWG6ghIVjbVq/+DLDh3SliUvRT1DZ4Ql6Tl3E84MusHPzdnYePItfWIp2LpkkY1/Dhxf69Gd47xaFSuPJxaoG3ecsw6vNOhat3M7xkJQ8jw0lLJ096NB3BOMHt6a6ZQTx7hbsu2zijZBNLbq9+y1P/+8g69dtY6fvdcJTtNoASJYO1PJ5mq49e/FyZy8qFvkrtqRq29Gs8OnMgV9+Yf2OE1wNT9V8bCjJdlRv3pm+A/rwv2dq5FkSXcat4xRWfV2Tzz//mQN3DL8rq4pePDdoJOP7NaOSlR6/epWRT4WasVyqeUjlPen70UravbSTtT9tZ9+ZO8Rlai14JWHl/ATt/9ebgX070sjFfCNPOrcWjF28hi6Ht7Bm/S4OX4kgWeOklywdqNW0Pb0H9qd3m6oGAWipkuyp/8p7/Ny+J9t/3sSWfWe5HpVu+OgdkORyOHv40Klrd/r0aoOHQSlDS6q0GcznT/XkxqEdbP79IEcv3CE2Q3shMsmqIt5tu/Hq8Ffo4mlkRFhXh0EfTuTW2wvYfffvUXkJ2bEBw+a9xXPOj0O4YkbF1Q+VVD9qIrO2c9mJ5iM+ZVPnU2z6cRNbD14hJFG7xKls7Ubj57ozYEAvOtUr3NMKTVbV6DxpES1ePMC6tb+xwzeAKI26/5JkhZNHc7q+0p8hPRrjWtYHzPPQVXqaqau+o9XaFXy7wZfAhDznqKTDofZTvDxyFK89Xwfb5P14WW3lvmbekXGWVdvw5tIn6XFkGz9u3MOhi6Ekai2ogoTOvgqNnulIz5d70LVpJUp47bcCkVRVLWuj+WWMQmr4Dc5fDOReTArZ5RxxrVqbJ5vXp5pJI0za1PRIrp29hH9wNIlZYGXrgFutevj41KOyGT4fIDvxLteuBBEaFUdsYjp6nTUOFStRo64HDTyrUr5Yy6TqSQm7yeXroUTGxhGfnI1sbY+zW1XqeHnjXdPBfKt8PUzNIDrQj0v+wYTHZYCdE1Vqe9OiWV2czH2TrE8h7Lo//nejiItPIiXHkvIVKuBWw4NGDWpTsVjTQXJICg3gyo1QouISSUhVsHasgGvVOtRv6EG18gU4WCWDqJtXOO9/l6jELCwdKlK5dn2aN6mBQ9kroftIamYsQVf8CQyPJSEhhUwLOxyd3Kjt5U2DOs75LpNtLjlJofhdusndqDjikrOxcnDGpXJNGjzpRTX7MjBSXiDZJIbc4EpAGFFxiSSmKVg7VKBipRp4NvKkdgXTWq6aGcetq9cJCo8mNi6ZdMUS2wrOVKlZl/r161KpoP1dZhRXjp3iUmgKFhXr0rJdSzxMSNH61yqOfqgk+1FTd82c7VxJ4/6Na/gFRxL7z3fnTJU69WjsVQPHkpgQkhXPravXCLgXTWx8Goq1AxVdKuPeuBGebtaPdc3uf2QlcNvvCn5B4USnKNg4uVHTqwktvV3MPudGSYvmpt91bkfEPTg/KlSkmocXjZ5ww0zhVbERwbkgCIIgCIIglBFl/N5BEARBEARBEP47RHAuCIIgCIIgCGWECM4FQRAEQRAEoYwQwbkgCIIgCIIglBEiOBcEQRAEQRCEMkIE54IgCIIgCIJQRojgXBAEQRAEQRDKCBGcC4IgCIIgCEIZIYJzQRAEQRAEQSgjRHAuCIIgCIIgCGWECM4FQRAEQRAEoYwQwbkgCIIgCIIglBEiOBcEQRAEQRCEMkIE54IgCIIgCIJQRojgXBAEQRAEQRDKiFIPztX0FFJySnsvBEEQBEEQBKH0lW5wnh3Kb9OH0W/GDu5kluqeCIIgCIIgCEKpK73gXE3gxFcz+fx4DBGHvmLMtN+4mV5qeyMIgiAIgiAIpa6UgvNMbv70Ie/9GkKWCqgK0ccX88akX7iWqpbOLgmCIAiCIAhCKSuF4Fwh6uACJi2+SKLy0P9WFeLOrGD8O+u4kiICdEEQBEEQBOG/x6KkN5jmt5Ypc/YSlqMRgEvlcKtdg4rlpBLcowyC/w9u1bsAACAASURBVPiRRWv/4FxQLJnlKuLerBPDxg/hudrWJbgfgiAIgiAIwn+dpKpqiQ1T68P3M33kJxyIUsi7UUnnQutxc/lksDflSyw2V7i/cxaD5/gS+/AoPhKyS1vmrv2Arm6lXtBGEARBEARB+I8oschTTbrM4slfagfmtu70+WQxC4aUZGAOKKHs2nAqT2AOoKLEnGDDvvsYvCQIgiAIgiAIxaSE0lrSOLX4Y368mZEnMJewcHuKCZ/PZFADe0oyLgdASSIuwVj4rZAUn4hK1RLdJUEQBEEQBOG/q4SCc1tavjaOXhc/YuudzL8CdBk7z158+MU4OlQp8dT3P+lq0cjbDjk82XCEXLbHu0ENdJpvVAj+YRx9F13n4fWTZMeuLNwzjWcsi2uHBUEQBEEQhH+zEktr0VVqy3tLZvFyXWskyYJKz77B8uVvll5gDiA50GnCODpVtcw9ai9ZUq3zON5oZ2/kjXoiw6JEyosgCIIgCIJgViUaGctuTzN9yRyq71LoMrA1lUoxLv+bRfUufLq+Psf3HOLsX9VaPFq0p0vrWtgbu3VR07h/P0kE54IgCIIgCIJZlXh4LLs+xdChJb3V/El2NXmm91CeKegblCjCI0VoLgiCIAiCIJiXqBNYGPpowqNEcC4IgiAIgiCYVwmNnGcTd8uPywFhRMYkkqpaUt6pEjXredO4nhu2j9ktghIfSWSGucvDK6RFBnL5ajARsfEkZlhg7+RM5VqePNmwGg7aM1MFQRAEQRCEf5HiXYQo/R7HNv7E2i1HuRSWit6gwLmMtVsDXhgwhNf7tqCKVZ7X1Tj2zhjJe/vjNKqpVKXv4pW829LWYLMpRz/lpcl7DOuXyy50+3QVczs6/jUBVCV+2zS6zj1DVt4PsWrKjG1f0sdVAhTCtn/GzPXXiUlIJCEhibRshQJ9c7ravLZmFeO8jUTXWZGc2bqBn7Yc4nRQAlkGHyph4VAdnw5deXXI/2hby7bkS04KgiAIgiAIJaKYxqxVEq9sZNKA13h70W7O39MIzAFUhYzIq2xbOI1+wxdwIDwn9+uSM8+9NZKnHTV2U4lg6zebCMjO+/8j2f3LYeIMo3nKtxrGuPaOhQhuVdIiAvG7GUJYVAKpWQUMzB/xmYlXNzOt/1DGfvYbxwLjNQLzP/8uJymUs9tWMHHAMMavOEe0vqjbFgRBEARBEMqiYgjOFWKPf8Pr45dy6F6mwWqgxt6TEvA7741fyNG43O+QK3dh0utPYmcQUatkBWzkm+25V/HMCdjOxvN5FzsCqZwnQ9/qQpUykUKjEH10AaPeWML+u4b7aoyaFcXJ76Yz4v093M17UyIIgiAIgiA89sweqmYFbmTqjK0Eppk6tKySdXcX8744Qmyut8rUfPlNRjS0NhzxVlM5vXINx5P/fkMqJzfu4k7ekWXJglqvvMEA9zJQuxHI8F/LpJnbCUovxPC7mk3Y/i95e8E5EosvIUkQBEEQBEEoBeYNznPu8NPHa7iUahg1SuUq4fPiq7w9fRqz3xvPmL6tqWMn5wm4FWIP/sCGgDzpLZZ1GDilL/WsDBNSlOiDrNwSigKoscfYfDDeID9ddu3MWyMaYlPoA5OQdJZYWf35z1KXd7//+itJxsLqwd/9+c8C3cPfclbA/9m767iqzj+A4597CUGMOTtmzdZttgi2AibYgRNzds+OmVNn6wzs7lnMDnR2t2K3GKhgoBL3Pr8/QEG4BeJk/r7v18s/5N5zznOeOt/7nOc8h/kjl3HRyI8XjW1qchcrTcVyxSmY0R6toQOpMG7/NYFpR4MtHnUXQgghhBCJXwIOJSuCfBez5GLMaRoatOnL0G/KAOrlso8W1NbHq/YKurSdzcnXUVuo8Dts3eJH23w/fJQ42wJN6NNgL+2W3yU8+gFUKBdXLmd/7d5k3/w3R2MGvdoUOLdvRdkUn/IYpZZcrb052BpAx+WZrWk27zaxBuhTuDFxW1/K2Bjbj56AbQtZeS3MQFCtwaFgQ/4Y9wtO6SLPXP+S80tH0HPa8dgPt+of8be3D01LNiF7opiqI4QQQgghPlXChXX6J+xYf4gXsYatv6Va794xAvMIdnnq8ku1tDESoefxiVPcjvVApz2F23TBI1PsUWt9wG5mLd3Mmo2XCf0o6tVgV8iT7jXSJY4F3fUP2bbhBAZuLKBJWphOv7eLCswBtCn4odlg+rulNpB+RajfFnz8wmN9IoQQQggh/psSLGZVQSfYdy401oiwNm053J1SGFkhxZa8+XPGGr7X3bvBjXexv61JXpyO3auQNmaqVRiX509k+Z2Px7I11tlo3KMOORLJGuHq2UkOXQ43OGqevIwHNbMYKA5NCso1cuU7Q+ege8jhw/diLzMphBBCCCH+kxJsWkv49StcDYsdduofr6ed0/o47UuFPycgUE/stxNpSFW+LV0rHOc3A3PLP6Ylfc32tCyUJE7H/pzCb17jerihWeLW5CtaCAcj21nnKUzh5Ku4ExTzjHXcuXKDt+Qwuq0QQgghhPjvSLCR87dPAniZUEO4KpSQECOfadNQtXsrHFOYTrr2Gyc6tStJ8kTzxh7F24AAXhnKI609GTKZWH/dOj1ZMhg6X0V4QABPZehcCCGEEOKrkEDBuSLEaDQdDxpb7EwMeGuSfUsaO1Pb21DQqx3VYs1/+bJCQmK9hzSSHfZJTP2KSIKdneHPVWhI7LebCiGEEEKI/6QEi15tbW0TaldorL4lTSpjSXvDydkz2RxgYrhY6bh74gwPE9mIcpIkxvIohHchphZFNP65xjYJCZfzQgghhBDiS0qgOecakqZJjYMWQmMExNqUZekz6WcKxeFIGptvyGpkUfLQSysYv+4BOpMLfOt5cWQOY/8uwSSPDIljpRY02KdNS3ItBpZFfMPDhy9RpDY8tSX8CQ8eGfqlocEqTVrSJI4TFEIIIYQQnyjBHgi1yvE9Oa3gZIwYUv/qJvdVDhoWSIDx3fDbLB+/hmuhMVZSt7HBOjyMj55H1b/k4NQp/F3ydzwyJmz0qtEYmWKi06E38aPBOmcuvrfW8Cw05pd0XDl5kTf1yhl8sDP82hnOGJzQb0W2vDk/4eVKQgghhBAiMUmwqFWbriilchqI9fUP2ThrE7c/eTluPQ82TGP++RgvOdLYU6rHKDr+aBd7/fMXR5kybgcGB53jTUMS+9jHAlAhj3kQa1g82papi1E6r7WBbfW8PLCBzf4GtlUvObB6B3djvvEIwCojpUtnTSR3BoQQQgghxKdKuLhOm5VqtQoS+7lFPa+Oz6TroPVciLUUYKTwQC5smse8fc+NLo+oD9jNpFmneB3zBaBpK/FzzeI06lyLbFaxwnOCDngzdsuTBFwLXEva9GmwNhSdh19i/aoLsdIYtWkmqtUuhoOBbdWbM0wbNJejT6NF4eo1l1aMYtTWZwbSr8E2XzXcCyTgS16FEEIIIcQXlYCRnZbM7s2pvao3q+7pPh7dVmHc3zWVFkfWUby8MyULZiV9MivCXj/jzuVzHDlwkqvPw9BkfsUPxbtTMmmMXauX7Js+m72BMUJUjQ156tWnVFINVoWb0snFl77bYgSy+iD2TZ3K1pLDqZEuYX6L2OfNSw6r/cR6OacK4/qyPjS5UpEqRTJgE/yEm/fS0fSP5hSxicijdNVa0GjlSeZfC4vxMiI9r8+toFPtneQtnI8sScN4cu085+8HG54qo01PzXbuZJdhcyGEEEKIr0bCDrsmLUKHAXU41m0tN2PNq1boX9/j2OaVHNtseHPlv4WpK2uxsNX3HyUs+MQCJm19Gmv0WJvckZ/rZMcKQPMNFTt6UeLAZI7GGLrWPz/EpPG7KTHGhYSIz7XZnKmYaxGXL8cMsAH1jgfHt7LoeOT/rfOQ/14ziuSMPLBtPloN8uRw+8Vcemsgj94F4HckAD9TCdDYkK3ur3Qpncz42uhCCCGEEOI/J4HHXTUkL9GeyYMqk8U2HmGjCuXy0jlsfhwtDA/xY+HETdyPuTyLxopsdTyp8m3UcbSZavBr83wGp9Y83zuD8TtiB/jxos1OvVblSW1J7unuct7v9UdBvH3B5kwYXoMcRtYuN0ljQ8aKPZjUswQpJTIXQgghhPiqfIZJEdZkqT6ABX+2oVzmJHEa2dVYp6JApdJ8/yFoDef6ij9Zdj32CLU2WSmaN84bY41va3J5dqFJTpvYx9UH4jtpGjsT5HWaGlJV7MrIpnkMzh//iArF7/x1Pp4BoyV9xV+ZP6M9lbIafrjU4FFt0lKq9SgWjK5OdlncXAghhBDiq/OZZixrSV2sKZNXLWRarzqUyZ2KJFojIahGS9L0+anUtBvTVi9j0SAPCkUOCevv/834hX68izV3xIqstZtS1dAbQJPkp+Wv1ckc6+FQ0D/bx4SJexPmdfeaFJTsOpkFwxpQKpMdxk/PBu3LZ8R+FlZDyh8bMX7FAqb19KB0jhTYGNyHBiuHjBSp0ZpxyxYyo30J0lklQPqFEEIIIUSio1FKmXydT8JQhDy7xfnzN/F/FkTgyxA09slJlToDOQoUIF/mZAk8+f1fpn+Dv995zl25x+OgN4TotSRJ9g3ps2QnX8G8ZEtlYCQ/9k4I9r/CmYt3ePQ0kBehViRL9S3pv8tD4UJZSWnzL5yHEEIIIYT4ov6l4FwIIYQQQghhjizEJ4QQQgghRCIhwbkQQgghhBCJhATnQgghhBBCJBISnAshhBBCCJFISHAuhBBCCCFEIiHBuRBCCCGEEImEBOdCCCGEEEIkEhKcCyGEEEIIkUhIcC6EEEIIIUQiIcG5EEIIIYQQiYQE50IIIYQQQiQSEpwLIYQQQgiRSEhwLoQQQgghRCIhwbkQQgghhBCJhATnQgghhBBCJBISnAshhBBCCJFISHAuhBBCCCFEIiHBuRBCCCGEEImEBOdCCCGEEEIkEhKcCyGEEEIIkUhIcC6EEEIIIUQiIcG5EEIIIYQQiYQE50IIIYQQQiQSEpwLIYQQQgiRSEhwLoQQQgghRCIhwbkQQgghhBCJhATnQgghhBBCJBISnAshhBBCCJFISHAuhBBCCCFEIiHBuRBCCCGEEImEBOeJ3ZsbHDv3HP2XTocQ/yk6HviuYfONd186ISIRCL17hpP+YV86GeJf8Y7rxy/wVC6a4j9MgvPETP+YrSP603PMBvxCv3RihPivULw+PY/ew1az+8JTdF86OeKLUoFHmdCzH0MXn+G1+tKpEZ+Xnsc7x9Ot5wSWXwj50okRIt4SKDgP58zExhQvXoGiH/2rguf82/+BUd+3bO3lRsVhR4iIgXVc8G5NhZqj8Q36vL158OHJuFdqxsSTMaJvFcxZ7yGMv+nIyMktKGj7WZPxr1FPd9G3ujte86//h4KmGPVDf48VHWrj0u1vHnz2yq3Hf0VXStf15nz45z7W10H3YDtDBu0mY/fxjPHIglXctv7X2r65dFye2YLSzZZyK/F3oF+YiTILvcWKgX9wKE93pvUsQTLNl0nhZ/PWl17O1Rm499PvCiRs3/xl2tGbC4vpM/YaJYeOodOPSRJ474mlb0i8QveOpGyJiPivWIlKOJavT4MOY1lyUu7+x5V1gu6sUAtm/V6VtB86QA22KVKb+QWg4+K0VvQI6szmQSWwScgExZuGtPlLUTYwE1mSft7ePEnGApQpY0PB9DGKQr3kEc6MmN4UpzRfzw0OjcN3FHMuzfO8qYjI2cRY/mZoUpKrpCNlbLKT4mu72H8xCVcPtMmy4NpvAhXLZsH0b1pDx/z32r5IKMbLTP/qCW9+6Iz3L5XInKBXu69P7L75k/b2BdqRnpeP9TgNnsAv5dJ8hmkBBs4peCc9q/lQfOUUPDN9PdfpT2LjxG8bB1A5SThvnt7iyJrZTOwxGP3CqTTPGbehkv9nCdpdaWyTkz5jBjLEqY7qeRH4EpWoroNa0pdvy4jyn/9I1tld6TPc1UASMuLWsdnnT0A8KaXQaOJRaPZ5aTiwf7Q/JMbyN0OTghIt+1His+xcodAkwMXx3/ap6U6YeqCUQpOyEG5l43vMf6/tm/ffqwVfhvEy06YuRZsO/36K4kwpiE9/mpBVJFbfHJNCKY2Fyfz32lHUtUhLhsqtaPfZjhT7nPRBQcggegwaa+yTJSO5PSRPUQSPXj24f7Izm3fe4ud2ueJ4JxPiVu++Hv/aTz31+jKrh3SkenkXHCs2psXgZRx56Me0BlXpvDGQZxt6U6p4BRx7bucVel5e9WXmoC7UrlIVR2cP6nZbwNHnhluB7vklNkz5DS/3WpR2qoqL51CWXwgm4tsR0wLKtJuLz5wRtKhbn4rl3andaTq77hm7FWhgKoF6yYU142lX1wMnp6q4NR3K3KNP0Zs9fsT+Ao4tZ1CrJlRwcqFszU4MWXmRFwp0fnOp79yRxfeibvq8u7WbCV1bUKWMC06uLeg8cTe33n2ctrI9fLiwcxZdGtajbJka1Gw3i4PPDN04svD89YGcXPI7XjWr4+jsTu0Ok9l08/1B37K1V3VaLT7Dnik9qVXOjWYL7xLmN5cGrmPYcnYDQ1s2pnyZqrg0G8uWu0FcXj+RNnXcKVOuPs3H7OHB+/ukYccZ6epGt02vULorRsrfXHo+Pj/TdSUi7S0WnObA3CF41qiJU7n6eI3yjUqTesudfcsZ1rEFLuVccKzoSdsJ+/A3em/342ku6vlmOjnFmNJV0pOJ58Ih9DHHVk6hq2cDyjq5ULZ6B4b53Ob9JCad31waVB3LjrPrGeBZh9KVR7HXzDOM5upbyK0djGnnGVHXqrel14z93DP4zILxehmvdL80vQ0Ab26xZWJfGrpVxdG5NvW7z2bPnYvxrAfG62X0NhXXvif2NCIT7TfByiKMe77edGlQm9JONfHoPJN9j2P0dxa3iXDOTWlK6daro027CmFnXzfK/nYwsjw+Q7sw2keaa6MW9mkm9h+7zMLw3z+fXk3rU9bJlYp1ujNy3RVevT9k2HFGVvNi0v4zLB/SkVqVq+Hk0pr+a28Qa6Zy+BWmNXCLMUVTz+O/elKm4Vz8YuSHzm8uDSoPZJ7PbH5t5olLpRq4NBrIrCNPI7ePPN+em7iweSLNq1fFuesWnilQr6+y9vduuFdyxbFCI1oMXceFl1H1QL28yPIhHahWzhXnqm0ZtOIKb2JEOxHXj+ZUdo6oc33mnyJ6NobeP8iMPm2pVt4Fx0pNaTd2G9ff8HHf/CGPWjD14Anm9vSignNTJpz9eG6dwbb1RI+56Xgm20Wc2/xtguIQL0A4D/fP51fPejg7VcWlYT+m7H1IGKAP2EkvV3e6bngcUVbqBbsG1sOlz04C9B+fU/DWgTh5TOfM2/OMd69E0VLNmHJRF60MjF3DdTz8ZzZdGtamdOmquDTsy/hNNwhWxL3N6QM5sfh3mrvXxNGpBjVa/s6iU4FGppBY0OYB9eoKa0d1x6OyG47l6uPZez77P+Vham16smTQEPg0Ml3m0mxBvft/8C8F5zr8Fo1m8rWCDF65nl2rhtE4ZxKUXV46LFvFoNK2pHIfxf5DO9g31oXkhHL7wEEe56rNwOlz+WteV4o+XMFQ75PEvhQpXl/az+GQH2k+dAqrV46nXVY/pg5fyZVoFS7szGb+fleREcvW4Lt1Ks0d/uG3/iu4ZtHkujCuLOxPh+lXyeY1hIUrZjCiXhY0Ois0Zo+vCD7pTYcea3hcpDWTls5nbr+KpFXK4G0LfYAvQzuN42BKD0bMn8fCER58c2gcHYb7EhC9gz0yh1FHs9N13hr2+gzBOeAv/ljih7EqbPr8w7g8fwD9djrQaMwCtv49k/4l7jO191xOf7hS6bixbDwrNA3x3ubD/J+zogXUi91M9g6g8u+L2LNlPLX0O/m9dUcm3CrOb8s2sN27JmrTFLwPvImdKKs8RsrfkvR8yAkL6ko4lxZM5O/kjZi20YcdM6qhNk9l1sG3kZn+hKO+N0lfrROTFy9i6bByhPiMZ+LOICwZFNGkcmXs1o347tqI74559Cmdgm8cPWlcyBp90Dl2n7WlfPshLFozjwkNkrFv3CT+ijZZXb04zKQJ5yk6eCF7t/amnJ2po5mpb3p//vp9IocytWHRtg1smNqcH5IqrGNVNtP1Mj7pLvPOzDZ6f9b378HIQ8mp/dtUVi4ZQcsCNoTZGOsH4l8vo8S174lLPiVcWbw6Op3Og7YTWrEr3ounMsw9GRdP+Ueb+xuXNmGphGwXpvpIy/pz032aqf0byM9jM+jUbzvhLj2YvXwWE1rl4PLU3vRZcy8qCNA9YNUfy3lTYxhrd65nactvODRlDtuexTg769y4e+TmzrZdXHnfweqfs9/3MpkrVySPgaFA9foY63wdaDhhETt3rWBS9Xes6j+Gdf5R7Sfs3EKG78hAt0Ub8J3gRmr1gLX9B7D8XSWGLFrFthWDqf52Db3GH4j4way/z+q+fZl26Tta/DGNxZN/4ceHZ/CLlon6p3sZ0XUO94p1Ys7Gv1g7qQHJto1gyMaIYFM938/IDsPYFFaWPtPnsnJaO0om0xm/h657xN9jFvCo6gj+9l1I1x+jf9FI27IxM8Rpsl3Ep81n4G5c4oVjM+k8+hw5fvmD9VuWM6tTNk6OGs7i6zq0aSvTo11ezs+exz9BilC/1cw+/B0tO1cmbYxoycFtGL6z6pPZthDd/trGkf3z6VzAyuw1XAX6Mn7YNmwaTmDLrlXM/bUUqbRW2GiIY5sL5dLcvnRfEkCJzn+wfOk4uhcPYEn3vsy5ZGwFCXNt/j5r+vZmil92Wo/zZuWsnrjottOn8wyOvIrnLQL9Y+4/UqRO+y1aS9Nsst79n1AJIkydntBIFStRWZUqXeXDvzKdN6oneqWUClWHRtZWzu3WqDuhMTbVB6kNXVxVpRHHVMyPoujU7UXtlWO92epiuAWpOTtD1XLqrJY+0CmldOrB8i7Ksc5MdS4s2h6vL1JNSnupPy+GK6XeqC2/uqoKQw+rkMjjRd9G/3KP6lPRTbVa9kDpLMmN6MfXPVKr2rupCr/uUE/1sb8bfmmOqufUQS26q1NKhasr3i1VKY8/1cl3Ud95d/JP5V66hZpxJTwqbbWmqdMfzidMnfijgXLssCEyvz/OO3Pnr3+5R/Wp0krNvBItc8POqXEejdQfJ8Mi88dFlfJapm5G+0pE2tuqebfe50q48pvRQpWKXk6622peM1fVYOY1Fa6UUqHH1AgXV9X175dKr5TB8jefHlNi1pWIsi036ID6kKW6m2p2E1fVePYNw+Wpf6E2dnVVlYYfjUxTzPoR8/9Rxw7YNkS5VOql/rpvpKaEHFSDK7qpHptfR+WhYx01aG9kfhg4H0PlF91H9S38iprWwEU1mX5ZvTGaR8psvfz0dMfeJuT4ZFXVsYWadtFAS49XPTBVL9+3qbj2PTHyO475FL+yeKLWdHBT5T86Rrjym9FcOf68RN3UxbVNhKmzkz2VY6tVKqoavlM7+riqMoMPfFSHP61dRPsoTn1kzDZqvk8zvX8DZdbOTVUe+I96ES0/b8z7RZWqNkEdCVGR/ZCL6rg+8EP91QdsVO2d6qvRJ2I3NH3AFtW1QhM17lTEmeuf+KiO5X5Rc27ETs3H9S9S6Bn1R00X1XKZv9JFprdUuT5q3eOo74Qcn6xq1JqojryNdmY3l6imlYapXW+UCj0xWVWL2X7e7Fa/OlVTA/aEKqXC1dVZrVWlvrtV0Ifz1qtn63upMh02qgB9uLo6q5UqVWOcOvjaQLHE7JtDj6kRLpVV7Ynn1TsDXzfZtkz1WybaRXzbfMxjG40XdI/UqvY1VdtVj6LVo7fKd5CHajL3ZsTfwm6phS2rq/qTfNWKLrVVE+8rBuMCpZQKOztd1XLqrJY9iLoGmruG6x6sUa2cmqiRB18Y7zs/ZIiJNvdit+pTsZrquPZJ1Lnonqi1naqpcn12R6v775lv8yHHJqmqpX9Rc29EZZz+xT9qgIub+mXlI7NtO2TPCFXGabDaFlmw4a/uqf0zuqqKZTupxTfDLUuz2Xr3/yFhHwjN14Q/h7pE/cK0/5ZvNQA2lGzRBbfek2ha/yBValWnrkcFfkhr4rEv/Suu79/Opt1HOXX5EUFBAYRZ5yVYD7EnLYXz/NI+fLYc4MjZGzx6EcQTXRpev1YYm5SnzZSZjDzinn84FDB9Xrpbl7j0Lht1SmcwcqvBxPHDb3DeT0+B7sUj88IE9Rq/i/dJ8mNrCkV70DxJoaL8aOfDhUuvUHlSRPzR2ipaNmiwS5oEQkIJNX7KRs9fF36JSy/vsL+tO8ujfUcfbk3lD2uPabDPmZPMsfLeCusPf9Ngl9QOjVX0tNlhbwchIaEWjUJDZH6bTU/0D8zXFa119BG2JNjbf5wm9eYBR7ZuZceBM1y6G0TQ0zCCHd9YnGYA9Wwv4yefIncHb+pkjqopoY/Psc1nF/8cv8Stpy95/kZH3uC36HGITFwGcud0iMP0URP1LVMuGnevw4mh3al7wpma7jWoU7UImWKOxltQL+OTbuPb2ON/8TKBaYvhnMeyxz0tqwfG6uV78eh7ojObTwlQFrobXLisJ3/nYkbLIs5twkIJ1S7M9pGW9Ocm+jTzfXA04dc5d1lP/p4/kfzDyVmRtXgR0s09w8UHekpliTiGtXW0I9rZY0cooSGx81OTphx1ys7hjy1n6FSkOMEH93E+ewV6Z7fw5rNVBr7LCL73HqIjfcQ+U+cg17fvt9fjf/EyTx7fpFfVXdHKRBGufuL1Ox2PLl3leeoiOBprP+o1ly7c4cWJcdSqOCHq73odKldRXutfc+nCPWyLtKKYg2XJBiuy5s5m5MHqeLYtK+PtIt5t3tJ4IfwG5/2COXOhFRVmRP1Z6XSkrR+MHtBaZ6fJrx5s/mUkk9K58+eYPGYeLI/Ggmu4xqMqXdocpX+/5jR1dMHDoxY1S3+HQ2RVsLzNXebSu6zULRZtvGEBfgAAIABJREFU0Q1taoqVyEbI2kvc1FWisIEIz3ib10f20YUpljVau0hemFL59Iy7cJ3wRunN50XoQYa4VmW40hMaqidZjtJ4jutG0xxW6M5akGbAdL37/5CwD4TafcN32bMafCDUKnMlBi8pjuehXaxbs4COy9bSeOIEOhY2sCP9E7YN6sq4e8Vo16EjXoOyoTb1puYcQxehcG6u7k+7+aFU69iS/m0LkiVgJc289pgMrNTbd7zDmlQ2WjC3yI9eD2jQGOyHzR1foRRotZZ04goFBh60fP+gnbmLsOUX6Y/OX6/AugCdV0zGM6OhdCbEfK84BBBm0xP9u3GpK0ZS9uIYY3/5nWO5GtO53VD65EnJ4UG1GKhTlqdaBbJ70kyO5mjJ4rqZPnQ8b88vpH2PbaRs0JY2Q9tRMO11JtTpww0V34DKXH3TktqpA/M2uHN8+2ZWLx9Mg6WVGDW7B+U/ivxM18v4pNvcNkqvx0gjMiyB6mWc+p5YTOVTApWF0qHTm+kj4tImSJjnBOPULkz1kZ/URpX5/RvdLHYuaDDfpg1/7oBT7UrY9NvBkW65eLX3Mt+7dCerxdX5HW/eKmxsbIyXjV6PVbaGzFnRmnyxfmzqua3Xg1Zr4oE6hUJLqhrD2TywROzARgVxOvK504R6ts5o2ypib2Ir4+3COT5tPk71S6GULWUGrmZCVWO/UPQ8vXKNZ3YOJAl/w5tQBRavOGPBNVyTjMItx7K++kV2b9zIimG/sLhId2aPrkqmV3G5FkWMxBk41KfRGHiwX0PEQ8uWsClK1wXdKWdnhU3yb0ib0o6on6CfKc1foX937R+rFHxfti69p8ykf/H7rFp7mjC0aK0UunDdh8qn99/Dyn+S0mBwTxo65eBbWw1KGek0ddf4e+U5crQaRHf3wmRLYRPRAZusR4qXp07ip8lFgdzmnx22yp6bXNa3OXIsIHYYb+741jnI+z1cOnIqYt6gKZrk5MuXiXfnzxB9+lWo32nOvctI/jwpEqgOf3z+VjnykMf6GvsOGji/zy52+cclPXGqKwYpXh7YgM/rCvQd2oSK+dJgr41DUB65j+d7ZjDh0He06+fOdx9aVRgn16/nZrG2jG5XiR8zOWCliVhdIN4srO/apJkpVactExYOodrb7az+J8acRZP1Mj7pNreNlox5vyd5wGmO3jIUVH9aPTDLwr4nFlP5lGBlkZnsWRQ3Llz9aI6sXq+PZ15osLG1RQUHR710Rx/Es8C45GLc2oWpPvLT26iZPjgm65wUyKPh8onz0V46pOf+qXM8TpGbAvFc8s62cHVqpj3Bjp372XcxJy6VMlp8AdU/OcPx27bkLZDNSHCtJWO+XCS/f5R9Nw23j3RZM5Hk6RUuPo6WA3od+g8DysnJmy8Dr44d4uxbA7vQJCdPnvS8O3PC8OfxZbBtmWeoXWjj0ebjVL+sc1Agt+LMvuNGV1lRz/YwZY4/rqPH0z7TQSZ6nzT+8iqNFq3SEfa+yCy+hmuwS1+IGm0HsmBKAxwOrGPbHV3c2lyOvOSxvcOJU9HWENc/5/SJO9jkyUuOOC+LoiVjvtykfHKWU9EWqFDB5zl+WUPuAjktG83V2JM6c2ayZMlA+miB+edJ89crQYNzFfIC//sPuHfv/T9/Hjx/h9I/YtOIwYz/+yKPXocQ/MiPi/fCSZcpHVYaezJnTsXbcwc4cDeA+/5B6OwccNA+5fwRP/yf3OPsjgUMX3TRcGPV2JPMQXH/zDGuPnrCzZNbmTTWJ9aLO/QP9zBn/h7O37qL374VDJ28Hzu3RtTIqAW02NpoCX/xjEADz1FovilHs7rpOTtzOJO2nOPGg/tc2DGP0YsuEGzu+NqM1PSqiK3vNAbO2cf5Ow+5fWoLk8Zu5HqsHsyKPPU8cQ72YeQoH45fv8f14z78/rsPwc5NaRB7OMVips5fk7IsLRpl4tyMYUzcdpmHgYE8uOjLvGXHCPzcy0QZKv84pEcTl7piOAHYODhg++oaR0/f58mDK+xdPJqZB6NfIE3XDxV4kEkTDpCmcStcUrwmKOgFQUEvCQ4FBwd7wm6d4ejNAPyvHmf16JlsM7qKgJH02VjDuyCevgozW9/V88OM7zWOVccf8OLdO55evcjN4ORkzGD/8Q87k/VSE490m9/GrmQ9PPM+YMlvE1l77Ab371/jn0WTmbk/CPWJ9cCoOPY9scIiU/kUnlBlkRU39x94s3U6o9ed5eadqxxeN5Ux6/w/1OO4tVErvsubE/s7vqzYeonrV06wesRIVj+wjcOPe0vaRbRvm+gj33xyGzXTB8f8sjYDNVq4YLdrKkOXHuHK3Tuc2TKd3xbdo5BXA0rG99002uzU8sjB0RnzOZW7IpVNrRmsu8mGmavZ53ePW+f3MGPIAs5krMnP5Y0PsCQp2ZAWhfxZNGg8604/4FngE678s4r5ux+iB5KWqkG1tJeZP3Ihe6/c48bZvcwZvIDDH54atiJvvZ8p824zw4es5sjtZwQG3Obw6kX4XAsDrMhfrzGl3mxmxNBV7Pe7z4MbJ1g1biZbHsbj56+ptmViM1PtQhuPNh+na4A2IzVaueKwdyr95xzk2pMgnt09i8+cjZx5A6hXHJwxhxMFvGhZIg/1e9Qj2ZZpzDlreAktqwyZyay9w+G9V3j0yJ/HwVqz1/DgswvpPWg5+28G8jbkBTfPXScwSXoyptLGrc2lKEOLhhk5NWMUs3z9uH37Mrtnj2L6qYw08ipLyniM5CUpUR+vQvdZOHQ6m8/c5vbVoywZ9ie77FxoVTMjWsK5MKsN5auPZGecrmOfL81fqwQNzsMvLqZN3aZ41In613jyScK0qfipfB6CfEbRxK0GlT2n4FegIyNb5MYKawo37UjtFIcZ1NiLNmN8efBtFbr1dOLVyj7Ua9CLSYdT0KyXO1kMpVabjfq9WlPw1lza1GtNjzlXydWlPW4x3g6jTf8jP6h9jO3SgdZDN/GmXG/+7OMUWRlsKFTeiZTHpjN21ysDv1TtKdp5HBObpufsjP40rd+W3kvvkyZ3WmzNHl9Dqgo98f7dDdu9U+nQ2Ivmw7byIksOUhnowbTpXRkxoyeOz9fRv0Urmg1Yy9NSPZk5zJX0n1Baps/fjh/aj+PPVt9xybsPdao3ptlgH+7pbNB99jVcY5f/fb3l6dGkiUNdMSJpmRYMqGXDjn6tqdN6PFvD3OjbPG+0UQJT9UPPnY1L2f74LRdnd8aligeVqnhQqUo9+m4N5kevnjTLcIYRXs1oNmgtjxy70tExLq/Y0ZC6WBmK6nwZNf00oWbqmyZFbsoX1bB3XGeqV6xFnQGHSddqMJ0dY050NlUvrfkpzum2YBvr72k+8Q865n/A4n4dqNekL9PP2pPrOzs0n1gPjIpj33M/1hXdRD7ZJFRZaMlSfxDjW2fj2uy+eDYbwIzTmejQqRwOH7qxuOWFQ7mW9K6WlINjutGixzz8CndjeO1McVpj2Hy7iM54H5kkAdqoyT441nc1pHTuhvdoV9g6ntaNfqH77Ovk7jCOCU2yx2Od5fe0ZHBxodDbd+SvUoZ0ptKv/Y5i+QJZN7w7zTpMZo9ddUZPbkNhU7M9rLLRZMIEfi0SwNI+ralWoxW/LrxCmI2KWLUnaVG6T+qFi34XQ1u2ps2wzbx2bc/P0ZaL0aZ3YYR3PyqHbec3r8ZUrdebP4+9xdYqIoLXZqrOqOndcQrewrBfWlK/3RT2qqzkiM+rU022LeNMt4u4t/m4XQM0pHTqivdYd1IcmErr2g1wbzOJ7YEarMMVb84sZuKu1Hh1qkI6Ldjmb8yvHjr+GrccQwugaNJUpkPbn3i8sCt1PPuz6Ow7s9dw+2ylKJ3qPNM7N6VC+UZ0Xq+h9vAuuH2jiWObs+OH9mOZ0vRbDk/qRWPPX5lw5FuaThpLxx9NLvllnFU2PMePo1Pu68zu2ZZGrceyRbkwekY3yrzv1zRatFbxDUY+Q5q/Uhr1SffY/wv0+K/oTr01BZmzph2F/u9um/y/n78QQiSM0DPTafjrQ9quGUF1I0/v6vzm0qjNadxX/onXd//uzFEhxNfh/2jxSHPz0L92/+/nL4QQ8RP68ikBD8+zdNwWrNz/oLL5pbf+lXQJIb5O/0fBuRBCCBFXYZye0YFumxR5q3VhXPtCxHfauhBCWOL/YFqLEEIIIYQQ/w0yIU4IIYQQQohEQoJzIYQQQgghEgkJzoUQQgghhEgkJDgXQgghhBAikZDgXAghhBBCiERCgnMhhBBCCCESCQnOhRBCCCGESCQkOBdCCCGEECKRkOBcCCGEEEKIREKCcyGE+GJ0PPBdw+Yb7750QoQQQiQSEpwLIcQXoXh9eh69h61m94Wn6L50coQQQiQKCRacq+CLLOrZnIpOLpStO4XDiWogSMcF79ZUqDka3yD1pROTAPT4r+hK6brenA//0mmJLrGmKzodl2e2oHSzpdzSx3XbL3B++nus6FAbl25/8yDO6TVMPd1F3+rueM2/LgHhF6R7sJ0hg3aTsft4xnhkwSpuW39lfZoRCVr/37K1lxsVhx0hNCHSJoQQn0kCBeeK5zsXMet0WlrNXcKqaV4UtUuYPScMDWnzl6Ks8w9kSar50okRwnKalOQq6UiZEtlJkUBVV+PwHcWcS+OUNxUJ1hqCd9KzXBeW+yfQL4hES8fFac1xHXmcsE/ckzZZFlz7TWB0nWzYxvmY/yd92meo/0IIkdhZJ8xuFK9fvEKlK0HJvBnIFLchoASiUGiMBBta0pdvy4jynzkFSqHRyBXkU33+fPwPlZEmBSVa9qNEQu7TPi8NB/ZPyD2iDwrivzGAa6qfsISeF4EvUZ9YhZRSaFIWwq1sfI/57/RpX9znqP9CCJHIJcDIuY5r8zviOf0yoTcW06RUZRrPvkHo80tsmPIbXu61KO1UFRfPoSy/EIwC9LeX08ypGVMuRJsboF6xvU8t3EYe5x2gXl1h7ajueFR2w7FcfTx7z2e/f9S4kc5vLg2qjmXH2fUM8KxD6cqj2Gt0Kk3M6QgR/y/bw4cLO2fRpWE9ypapQc12szj4LGrkT/foCN6921KzshvFS1SgaPGIf6U6bOCJ/i1be1Wn1eIz7JnSk1rl3Gi28C564N2t3Uzo2pzKzi6Urd6WPvNP8X636vVlVg/pSPXyLjhWbEyLwcs48kQP6Hl51ZeZg7pQu0pVHJ09qNttAUefWx7xRBy3BVXKuODk2oLOE3dz60Oe6Hj4z2y6NKxN6dJVcWnYl/GbbhD80e7f8M9vdSjbYxvRD6u7Op+GZbuw7IEenYlyNSwM//3z6dW0PmWdXKlYpzsj113h1YcNjOVjOA/3z+dXz3o4O1XFpWE/pux9+GHkMOTWDsa086SCU0Qe95qxn3sG71WHcc/Xmy4NalPaqSYenWey73GM1OoDObnkd7xqVsfR2Z3aHSaz6aZl87LM5Yel6TT+vdi34k3Wy/B7LGrhRt1pl6OmrISdYnQ1NzpvDIpIV9hxRrq60W3Tqw/pNFVndX5zaeA6hm0XtjCmXTOqlKtKhbr9WXD2NQoI3joQJ4/pnHl7nvHulShaqhlTLurM7td4W4hJT8Cx5Qxq1SQif2p2YsjKi7xQQOhjjq2cQlfPBpR1cqFs9Q4M87kdlVeG+om3b7mzbznDOrbApZwLjhU9aTthH/7R5/i8ucWWiX1p6FYVR+fa1O8+mz13LjKtQVU6bwzk2YbelCpeAcee23lltg4ZruNhfnOp79yRxff0xvPjoZ+RYxqaYmU8n8zVU8vK4n2/uZGzW6bSrq47zs7u1O+7jsuBd9kxqTf1XKvh7NKaQetvfSiD0P2jqeA8kC2vo/bzeHUPSrtP50x43Os/6iUX1oynXV0PnJyq4tZ0KHOPPkUfrz7UVD9jSZ8phBAJLwGCcyu+9xzLrNa5scnRiNk71jPHKztvL+3ncMiPNB86hdUrx9Muqx9Th6/kig60Wcvjki+Af/Zc48N15fUJfE/aUc7lR+z091nTtzdT/LLTepw3K2f1xEW3nT6dZ3AkKqpDvTjMpAnnKTp4IXu39qZcHKfShB6Zw6ij2ek6bw17fYbgHPAXfyzxi0iT/iFrh41go6YmE9dv5tCWibT+8Rvyeg5nfv8KfKsF0HFj2XhWaBrivc2H+T9nhad7GdF1DveKdWLOxr9YO6kBybaNYMjGx+jR4bdoNJOvFWTwyvXsWjWMxjmToGw0QCi3Dxzkca7aDJw+l7/mdaXowxUM9T6JJWGiPsCXoZ3GcTClByPmz2PhCA++OTSODsN9CdCDCvRl/LBt2DScwJZdq5j7aylSaa2w+Wg0LiklXR2xO7WfQx+GQXXc3HsQ//wVqJhRw2sT5Rqb4tWxGXTqt51wlx7MXj6LCa1ycHlqb/qsuUe0n0Ex8vE73hybSefR58jxyx+s37KcWZ2ycXLUcBZf14Hen79+n8ihTG1YtG0DG6Y254ekCutY94EUr45Op/Og7YRW7Ir34qkMc0/GxVP+0eZah3F5/gD67XSg0ZgFbP17Jv1L3Gdq77mcDjGX68p0fliaTovPBwvrZdzoTdbZyDN9sZvxU+5QauBsduxaRJ+815g10Yc7enBwG4bvrPpkti1Et7+2cWT/fDoXsDKzX1Nt4eM8Dj7pTYcea3hcpDWTls5nbr+KpFUKa0AfdI7dZ20p334Ii9bMY0KDZOwbN4m/ok1QjtVP2D7hqO9N0lfrxOTFi1g6rBwhPuOZuDPyx4ven/X9ezDyUHJq/zaVlUtG0LKADWE2eemwbBWDStuSyn0U+w/tYN9YF5JbVIdi9xUfF5WR/LAzdsyYTOWTmXpqcVlECD0yj/HnCtFv6QZ2LWrKt0dm0rHZHxz6vj0Ltm1g2S+pOTjJmy1PLYxi41L/CePKwv50mH6VbF5DWLhiBiPqZUGjs0IT5z5U8dpEP2NZnymEEAkvQaa1aO2SkczOCo02CclTpiC5FVCmHX+UifpORs8KLO5whpOP9eTLlJHKVfIwa/0BrnbMTwErCD5+gOP2zvxRJAmhJ/9iwZkMNF/aBfecVkAOWgwN53r9Uczf0piSjdJH7lVD8dY9qJc/ebxuU2vTVqVPPzdyWwMUxdUxFT5XrxOoCpJWd4dLVzUUG1KNPCmsgcLUrpyFFQcDSffdN1jzFlCEZKhO/06OZLYC0HFt3VKOFGzLOq+SpNQAaarQ2XMHHjuO8rx2NV4EvUSbIj2Z0yQjmU1eqrbMG5kaO35sNZgfP6QuE81q/sVmn9Pc1BWngMmpQjqur1vKXtuazBhUh6JJALIyeMADGnZewl/Xy9Mu2QuCQuzImSkt3zikIFWpurQ2sCf74pUo7zAU38MvqVE9JRr9Xf75x5+CHmXIoNWgNVmuMXamf8LW+Vt5VXEAw5s7R8wZzd6Z4QEX8Vy4huO1e1LKltj5qH/MhgU7SNNiLh0rpkcLpCvfkpa7GjPnn7u0zBFG0Es9ydJmJl0KB+xTONM8l4GT0T9l+6JtvHD6lfkdKpFaA+TKRocbezl2KOIr6tVBFqwKpd70LtTIE5HJpbya4+rzOzsvtqdIUVNNRENKU/mR/rVl6VQWfg/AXL1Ur0yk1+AOuWGyzrqTCsAqJ54D2lExqxawp5LLj4weco0bYZA9iTW2Nlo0Gg02trbY2mr5tLYQjf4Jm+f68Kz0r8zqXCWiDHN+x4dvpnOh/2iXD1/P2bQOzkuGc+LsWzwzO0T+NWY/kY2GQwdFHSObJ/UKr2fK8auEVy2JOrWG2cdS0XReXzwL2ACQve0PkWVlg5VGA1obbG1tsQHUq31m6hDE7iuI8TCu3nh+GDgmxBjVNpdPJtutiWMboE3rxq+9KpHDGshZgUp553EzawsGuH+PLZDcpTwFpszn0s1waqexMbqfD+JQ/9Wrg8xfcoM8befTr3amiB842XJSMvLzOPWh+idsMdHPNK9mWZ8phBAJLYHmnBsSzvNL+/DZcoAjZ2/w6EUQT3RpeP1aAVZkrFSRQt4b2XO1FQXyh3BszymSlhvCT7Z6/C9eJjBtYYpljepNNckLUyqfnnEXrhPeKH3EygbaDOTO6RD/+aPWVtFWSNBglzQJhIQSqgDrvJQpnZSJm3dyu0Q1soZcYpPvbdIU+j4i0Ijcxj5nzg8XW9RrLl24w4sT46hVcULUcfQ6VK6ivFY2lGzRBbfek2ha/yBValWnrkcFfkgbeQHTv+L6/u1s2n2UU5cfERQUQJh1XoL1YHIpB/Uav4v3SfJjawolifpzkkJF+dHOhwuXXqHxqEqXNkfp3685TR1d8PCoRc3S3+EQc6TV7idcyyWj955jvKzmQvI7B9l7Lz8eFdJGjvSZKtcYJRF+nXOX9eTv+RPJP3xkRdbiRUg39wwXH+gplcNAPobf4LxfMGcutKLCjGinqdORtn4weqsCNO5ehxNDu1P3hDM13WtQp2oRMsW8c6K7wYXLevJ3Lsa3RiqJ7tYlLr28w/627iyP9nd9uDWVX1sy8mciPzLlsiydVhZ+D8zXy7jecjdbZ4kIzjVWH41kWtnZYaN/QUg4kITYPrUtvBd+g/N+egp0L260DEMfn2Obzy7+OX6JW09f8vyNjrzBb9ETGZwb6CfUmwcc2bqVHQfOcOluEEFPwwh2fIPiff9TDOc8FgSWWFqHYtTxWCzMD2PM5pOpdhvHY0fvNzV22Ntp0FppP+Svxs4ee0IJMXvnKVIc6r/u1iUuvctGndIZDN/2jUsfaqafIaOFfaYQQiSwzxSch3NzdX/azQ+lWseW9G9bkCwBK2nmtedD7KBNVxbXH+aw6p+btM8WwJ6j9lT4o2DUqgUaAw9taQD1uSf8Re5fk4qyTaowr+8q+nkuItjqW3KX7cGkdoVMrKygUGhJVWM4mweWMPy9zJUYvKQ4nod2sW7NAjouW0vjiRPo+FMw2wd1Zdy9YrTr0BGvQdlQm3pTc44l56tQYOAhyvd5qECTjMItx7K++kV2b9zIimG/sLhId2aPrkrmjy42thR2dSZ5r/0ceVWJfPsOcvfH6lRIq8WScjWcnbGjBU1kmo2ej7KlzMDVTKjqYPAbqZ06MG+DO8e3b2b18sE0WFqJUbN7UD56ZKJ06PSg1Zq4muoVWBeg84rJeGaM61XXXH5oLUunye/FOKTZehnXn6rm66zJ5RZNFHy820KR6IG0QinjZfj2/ELa99hGygZtaTO0HQXTXmdCnT7cMNFPqBfHGPvL7xzL1ZjO7YbSJ09KDg+qxUBdRJ1Uej1o4lAXzNYhy9bdtDKWH4Ut2dpUPplvt0aPXST+gx9RJWBuD3Go/3o9oDFcPPonbItTH2q+n7GszxRCiIT1eboY3TX+XnmOHK0G0d29MNlS2EQEY9H7SG1qyrsW4vHBI1w9fYjjycpQpZANoCVjvtykfHKWU/eizRsNPs/xyxpyF8j5OYf7o6jnbJ21jazdZrBy/Sr+/msmE7tVJoepee2a5OTNl4FXxw5x9q2J71ml4Puydek9ZSb9i99n1drThPjvYeU/SWkwuCcNnXLwra0GpSwcCNUkJ1++TLw7f4ZL0R42DPU7zbl3GcmfJ0Xk5VGDXfpC1Gg7kAVTGuBwYB3b7sR+AM/2h0pUSnmO/Sduc/DAfX50cSaNBsvKNTrrnBTIo+HyifNEDULruX/qHI9T5KZAJiPVzzoHBXIrzuw7bnIFEG3SzJSq05YJC4dQ7e12Vv8T9HF+WWcmexbFjQtXP5pzqtfro4KSHHnIY32NfQcDYk4UMM/C/DCbzrh8z2y9tCGJrSL41Zuo+eLBgTwPMZKRltZZczRatEpH2Ps49BPawkdLFFrnIO/3cOnIqYgHQD8Sxsn167lZrC2j21Xix0wOWGkiVkIxTvHywAZ8Xleg79AmVMyXBntt9B+KWjLm/Z7kAac5estQUK1Fa6XQhesSpg7FZDA/Yh8zFlP5ZGm7NVcW8aRJYouNCuZV8Pvc0RH4/GWsc7Gk/ltlz00u69scORY7r/Vx7UMt6mcs6zOFECIhfZ7gXGNPMgfF/TPHuProCTdPbmXSWJ8YL33RkLpsJQo/2If3quPYl69Aoci7qElK1Mer0H0WDp3O5jO3uX31KEuG/ckuOxda1cxoONEqkH0Te9Dqt83cTog3qygdoaFvuXP+PLefPOfZ80Cev3xLuMlo2Yq89X6mzLvNDB+ymiO3nxEYcJvDqxfhcy0M9I/YNGIw4/++yKPXIQQ/8uPivXDSZUqHtZ0DDtqnnD/ih/+Te5zdsYDhiy4audhrsLGxhndBPH0VBliRp54nzsE+jBzlw/Hr97h+3Ifff/ch2LkpDfJZEXx2Ib0HLWf/zUDehrzg5rnrBCZJT8ZUBka1bPLhWjEFR9fOYcfNgriWjVwP22y5xkiXNgM1Wrhgt2sqQ5ce4crdO5zZMp3fFt2jkFcDShqaDgGgzUiNVq447J1K/zkHufYkiGd3z+IzZyNn3oB6fpjxvcax6vgDXrx7x9OrF7kZnJyMGew/HqPTZsXN/QfebJ3O6HVnuXnnKofXTWXMOv8P+apJWZYWjTJxbsYwJm67zMPAQB5c9GXesmMExirrGOdnJj8sTafF5wPm66X2W/Lk+ZbA/etYc+om105tY1z/ZVwyOnppps5ayCpDZjJr73B47xUePfLncbA23m3ho9kH2ozU9KqIre80Bs7Zx/k7D7l9aguTxm7kepgGBwd7wm6d4ejNAPyvHmf16JlsM7k6hwYbBwdsX13j6On7PHlwhb2LRzPzYFQgbleyHp55H7Dkt4msPXaD+/ev8c+iyczcH4TS2JM5cyrenjvAgbsB3PcPQhenOmSEqfwwcMxYPxtM5VO4mXZraVnEk1X2XOS2uozP0gP43bjMvkUjGbPtBe9v9MWl/mu+KUezuuk5O3M4k7ac48aD+1zYMY/Riy7wxmwfqsXWRkv4i2cEhmK2nzHVZ6qnu+lbrSYYanAoAAAgAElEQVRN516VF3kJIRLc5wnOtdmo36s1BW/NpU291vSYc5VcXdrjFuMtEppUpXEr6s+Bo7ZUqJInakTcKhue48fRKfd1ZvdsS6PWY9miXBg9oxtljL2JQr0l4PZNzu/4mz33E2BkQ5ua8tV/4sn6YXjWrIeLax2qVKqOc5XWDNp4x+iIkja9CyO8+1E5bDu/eTWmar3e/HnsLbZWOtCm4qfyeQjyGUUTtxpU9pyCX4GOjGyRG+s0VejW04lXK/tQr0EvJh1OQbNe7mQxWEIaUhcrQ1GdL6OmnyYU0KZ3ZcSMnjg+X0f/Fq1oNmAtT0v1ZOYwV9JrwT5bKUqnOs/0zk2pUL4RnddrqD28C27fGMpPa/K7lCPliaPc+KkiZd8H8GbLNWa6NKR07ob3aFfYOp7WjX6h++zr5O4wjglNspu48GtI6dQV77HupDgwlda1G+DeZhLbAzVYhys0KXJTvqiGveM6U71iLeoMOEy6VoPp7BjztoaWLPUHMb51Nq7N7otnswHMOJ2JDp3K4fDhtO34of04/mz1HZe8+1CnemOaDfbhns4GnYHg/KPzM5MflqbT8vPBgnppQ+HmXWmc5RozO3ek47gjZOrwGy3yGc9tk3XWQpo0lenQ9iceL+xKHc/+LDr7Lt5t4eOUakhVoSfev7thu3cqHRp70XzYVl5kyUEqK2t+8upJswxnGOHVjGaD1vLIsSsdHU3P005apgUDatmwo19r6rQez9YwN/o2zxvV/1h/T/OJf9Ax/wMW9+tAvSZ9mX7Wnlzf2aHBmsJNO1I7xWEGNfaizRhf7uvjUoeMFYKp/DB0zFglYDyfbMy0W4vLIn606Vzp2sWR0K0jadl6GEufVWJov7Kkjuzb4lT/sado53FMbJqeszP607R+W3ovvU+a3GlJYrYPtaFQeSdSHpvO2F2vUGb6GdN9pgat1gormd4ihPgMNMr0PeD/lrBzjPdczvfeo6mT+tPWu9I/2kKPtnsp6z2a+pFvVdKHPuPolJ70OFmBxctakueLvGxJ/D+TeimEEEJ83b6e3/0h/uyZ7M3JonWpZGxZhzhQz+9z70Uwj/0DI19+oefto8scvRREppJF+E4CIPEFSL0UQgghvm5fzci5enGClT6KSk1KkD4hnhhVr7iwxpupqw9z7bnCJokVSb7NiWONxvzSsCjp/pWnUoWIQeqlEEII8VX7aoJzIYQQQggh/uu+nmktQgghhBBC/MdJcC6EEEIIIUQiIcG5EEIIIYQQiYQE50IIIYQQQiQSEpwLIYQQQgiRSEhwLoQQQgghRCIhwbkQQgghhBCJhATnQgghhBBCJBISnAshhBBCCJFISHAuhBBCCCFEIiHBuRBCCCGEEImEBOdCCCGEEEIkEhKcCyGEEEIIkUhIcC6EEEIIIUQiIcG5EEIIIYQQiYQE50IIIYQQQiQSEpwLIYQQQgiRSEhwLoQQQgghRCIhwbkQQgghhBCJhATnQgghhBBCJBISnAshhBBCCJFISHAuhBBCCCFEIiHBuRBCCCGEEImEBOdCCCGEEEIkEhKcCyGEEEIIkUhIcP4F6V885Wnol05F/IQ9D+DZfzTtQgghhBCJ1VcZnAdvHUjZFiu4ozfwoQpkW796VP1tHy/Uv560aOl4xtZRw1hx9b8Y4eq49/coflv7AENZLIQQQggh4ifBgvNw/wNM7dEKl7IuOFbypNXQlRwP0CXU7hOOJgU/1fbil5r5SK75csnQXfubNaFuNCpgC0DonZ2MbNWIiuXdqdl2Grv9jeSdesHJ+QOp71qDcm6t6Lvcj9dx/JGhAi+y0XsMrWtUxWPKRcKNflPP433etK/tQdmKDWg2fAs3QgCsyFHHg2+2ruf0f/G3hRBCCCFEIpUwwbn+AauHjuFAWi+8fXzYvWYkzbM94vjll3yxwWmNBsOxtxUZHT2oVzLdF7xtEM7FrftJXaUMabWA7hZLBs/gbrnhbNq9grGOVxkzfCP3Yw1LK17sncagTSnpuGQDuxY1x271CKYeexunoysFSdLlJX9mWyN5FEH/aDMjRp4k36DF7Nk6kdpB8xm44CrhgCZFKVxynGTriXdxO3UhhBBCCGFUwsSnuofcumdLgfKOfJ/KHofUOSnfsjsdy6ZCAwRvHUTFdtOYN7IvbVq1xcO9DX2XXYoa8Q29x46JvWlYqx4u1VvRc95pAi35LOwhe2cM4md3D8qWr0+zIZu4HvL+zN5wafkImrhWpXTlFgzwuRs5QhzG4ZF1qR05Yhy8dRCVeq9i+4whtG7mRdWqLaN919TxdTzYNYU2tevi4lqfuh2nsv1uOOgDOTyzD3Wr1aGKmyethv/NlZixs/4uR04mo0jhFGgA3Y297AxwxKtJXhysHSjQqC5Fr+/G90HM6PwNR7cdJUPdn6mQ3gbbDGX5uXpS9m4/SwiW035bkKp1a1I2RxITwbmegH2+XChUn5bFUmJt9x21PMvyeqcvl3UAdvxULAOnj1w3MfIuhBBCCCHiImGCc5uC1HRPwz+jBzLZ5ywP38UcL1eE3LwJtQYwe/5s1nrXIeR/7N1neBTl3sfx786WZCGhhBBCaAlwUKQKWI5KCT2CNFFsoIBiQT3nwY6oqMhBjxVRUBQLCgoqKlVBQFQUxIJ0DiUECJBCICHZkt2Z5wUBQw0cN2Hh/D7XxYvsvXPfMxNe/Oaf/8y89y8mrioEvPz2+mO8tO0Snpo6na+nPch5S5/nle/zSxz7ffwjPPlTAkNem8rCeWO5p1M9qh7sEqFw3XzmWz14+YsZfHRnPD+99jHLj9uCYeFZ9g1/NL6LCZPfY/rw8/jt9UPfPcn6hb8y6flfOP/xyXz99RReH9KG+rF2gus/4YWZFRk65VMWzH6N+1LOo1rkUUv6trE5pyZ14w6e/sK0beyqnkSis2jcXYu6celsSTuqtSW4m63bHSTWrVr0izOoVa8mvtRtZIa8+TtI2tZ0qiTVJqoowTvrJFIjaxupBQA2ohNrQ+rWM9u7LyIiInIOCVFnh5tmd7zCuw+2Im/Os/S7ciDDXv+W1GIVY3uNi+jYpCIG4EhoT7eWOfy4dBtBzy98OieCvv/sw/lRBrao8+jbLYFflm6gsKSxmR663DOYNrXK4XQncPEVDal4KEg26MG9NzajmttN7baX0cCzi50nSJGOuslce0U1nNiIatyIpIKi755sfaMisZUPsO6H30jNcxDfvDn1ytmwVahClcBWfvpxEzlUptFFDah0VHnazNtHblRFKhoAFj6PFzMyksjD34vEHenHc/RFjuXD43UR+ecXsUdE4vR6KY3mEq/HR4Q78nB13RYRQSS+w/tlVKpExf372KdwLiIiIhISjpDNZHNTp831PNamH//YtJg3R73A7btsfPxUG5zHfNlB+XJO8nPzCeZlkHlgB789chvzD10q+PMxLgpgljCW4Ysnufaxsx8jwoULE9M8hRTpcOIo+u7J1sfegNteeYxKb3/IsL7jiG13E8Pu7kbDmr149qUIJr09huvGubj4hjv55w3NqFL8MsiysGxG0ZWRjYhybuxeD14LsAGWF483gnLuo1K9EUk5t499nj+PI+D1Uuh24y72NXPLxwz9x3S2BgFnS+774GE6nfbdrzbc5SLwFngP3zdgej14cVP+0H7ZDGyWeebuKxARERE5x4QonFuYpg3DADCoUL899w76idnP/samYBsaHv11M5MtqR5i28XiiM4jtnwNLh49gcF1jyrke74/+ZhzD2k7glCtdG7tNKKrnnh9gLgLuf6RC+k3dCNTRjzMQxPr8NmwJlRq1I1hL17JHalfMerekbxU80NGtSv357xR0ZQ/kEquCdjBlZhEwq6tbPVDzUigYBub99SgWaL9qB2Kp24di6VbMjAvr4FBkLRN24lMvPLgjaWHvla3H+Nn9vurR0/tejXJ+X4beVZDKtkgkLqV7dUSSSy6ErDy9nMgqirRf3ElERERETkoJKk2uHkqd9z0BJMWbWR3bgF5u1fxyee/YVxwAUlF+TKYvoKvV2TgK8xl/ecT+HBrE3p0qI7hbkmvzh4+eXkaK/cGwCoke/1aUgssOOlYC3p0Npgz7h1+SPcQ8Ozh51mLWR/K/o6TrG/t+5WP3v+O1AITIyqexLhIzKBJwZrZvDtnE7mmjXJxdUiIsggeXbGPrElt9y7SivpBjKS2dKm+jHc+WEOuP5dVUz/jt/M7khxvgH8zHz82grE/5GDh5pKul5Lx6XssSPfhS1/M5Dk+OqQ0xRWK47Xy+W3S4zz4zmryMYht3ZFma6fz1k978RekMuPDpVTu1J7zin6nnu078NSsRcw5+bR8ERERkbIXksq5vW4vHrzlQ95893HefzQLb2QcF7S+lhf+rwNVbJAPGBWj2ff5E/R+eAdmfDN6/+sReicYgJuL/jGaYePH8dR1k8kodFG1YTJ3Dj+fxHInGyvHJfeO5oFXx/Lv/r3JdlTlvMt68882oWyyOPH6dSqUx7V7Kvf3fZH9ATsVG6Yw/LEmOHOz2b9gDNe/she/UY6k9v/g8Tbljz5htGqSwdzVHq5JLgdGHW4YOZSdI5+k+3sFRDfsyvAnu5NgAIG9bFm1hu1NCrCoTHTru3hm87OMGtCLp4zqXD5wBENbHn3H6ckU8t3T1/HI1/kECv0EGEbbTyK49OEPeP7KQnZvXMcqIwOfBeXjujD8se08MeZmkvdFUK/jrYy6uR72onnWrUyjYavzQtgbJSIiIvK/zWZZVqm3DOfPfZSu05rw4dvXUVtVVgB8P7/CwJkX8saTbc7oy5D+a75fGTN4LhePH077s/IARERERMJP2UVly9KNg8VEtOxN18yZzDz2TUNnAZPMr2ew4e99uELBXERERCRk1JFwphi1ufbBm1gfYVKW10ihYq/Xm4fbnh+aXncRERERAcqorUVEREREREp29pVsRURERETOUQrnIiIiIiJhQuFcRERERCRMKJyLiIiIiIQJhXMRERERkTChcC4iIiIiEiYUzkVEREREwoTCuYiIiIhImCi1N4QGTBOfJ0DADJbWEiIiIiIipcIwbLgcDpwuO4bNVmbrlsobQvPyfZimGeppRURERETKnMvpwB3pLJO1Qh7Oc/M9WMrlIiIiInIOcTgMyrsjSn2dkPac5+X7FMxFRERE5JwTCJh4vIWlvk7IwnnANNXKIiIiIiLnLH9hADP0HeFHCFk493kCoZpKRERERCQsFfpL92EnIayc66ksIiIiInJu8wdKtyCt55yLiIiIiJwi0zxL2lpEREREROSvUTgXEREREQkTCuciIiIiImFC4VxEREREJEwonIuIiIiIhAmFcxERERGRMFG24TyYwY9vPsrNPXvTtfcdDH/vV7JP5aWi1j4WP30jHTrfz6e7/9wgmLmCd4bfQa+uveh508O88tU2vH9uRO7qT3lqyA2kdLma6+5+kc/WHcA65XERERERkbJVhuE8SOr0MTyzpCLXjH6Nd0ZfhXPOGMbM3MXJ87lF/i+TmbiikHK24tNtY9rIMSyM6sNz709i7F1/Y+Nrj/PK0jwswMz4ijEjPsfbeTjvTB3HQ3/fy4fDn+erjIOrlTQuIiIiIuee5OQUkpNTzvRunFDZhfPCtcz6YhtNbxpCt0YJVG+YwtDrk1j9+Xw2n+zlor4NTBn/PQndO1Cn2N4G1s9ndmpjbhraiQZxMdS57Gb+2bsciz/6ht2myc6F8/i1Zi+G9mlMfEx1Lrz+Hm6s8wcfz9xCkJLGRURERETKXpmFc3P3Otbk1KJp4wrYipau0qgx1XetZc3eE1WrA2z99A1m2nswqH3lIyrswYzdZFdMIKH8oXK6g6RWzam8aSWrC4Jk7srCmVCDqoeO0KhKy4tqsmvlKjLMksZDf/wiIiIiIiVxlNVCwcxMsoghtsqf1wNGbCyxZLMny4Kqx25j7v6a8dMK6PrU1TRwfolVrCHciIqi3IEc9hVy+ChMuwNncC+ZOVA7ujyFO/dywIKYovxutzuwsrLIMg3Kn3QcqutWWREREZGQKKmNZNGiuWW+fvHPSnv901F2ETTgx29zEWH/8yOb04kDP37/cW7DtHJYNOFDdlxxG/2bRGI7atjR8FJaRSzn4ym/k+n1sXfdHJ5/ZQFZlokZtJN06UXErf6C979Pp8Cfx5ZvJvDvz9IwLRMoaVxEREREpOyVWeXc5owgwsrDV6yh2/L7KcRFRMTR0dsib/l7vL22Cbe90ZJoG8fcNGqLuoShj13Hi68+S/9pfio3TGZA/26kj15DdJQNV+KNPD40lxdfvZveo8tRt/U1DOp3AU/MK095A1yNTz4uIiIiIqFxpivTxdc/VDE/0/t0ImUWzo2qccSykcwsE2odTL9mdhZZxHJF7FFp2MrjhxmL2J1j8EL/vrwAYAbx+gNsGXwd3974PC/fUJsKTa9h5MRrDm/mX/Yyb1WoRWIlG+Cm/lXDeP2qYUWjQda9OQtn7S5FLSsljYuIiIiIlK2yC+fxF9C4ykf8/kcO19Wqgg2TjD9WsbtmMxpXPqpyboui7UMTae4r9lTynbMZ8ehKrhjzCD2SYo/tx7HyWP7NChwXD+P84x2Vbz0Lv9tP84FNiTzeDpY0LiIiIiJSysosnOM4n+69Erlr8gRm1r+NS63lvD5tG836P0CSHTB38NkD9zHZGMBrz3YjoXIc7mKbm/4oXDipUDWOKlEG+Lbw2fivMa7oQsuqfrZ9+wFjV9RlwGvNiQACOxcwYdo+WnS7lFq23SyfOoGvK17NC1dEYzuFcRERERE594RrO8shZRfOMajd5yEe3fcy4x+4jdds8bTs/QgPXhl3uApusxkYxilGY2cMdavtY8Jz9zN+v52qDa9gwLO30q2oJ8VesTa1AvMYd99ksq1K1LusB08/3Zv6Lk5pXERERESkrNksywrJG+v353lCMY2IiIiISFirGO0u+Uv/Jd36KCIiIiISJhTORURERETChMK5iIiIiEiYUDgXEREREQkTCuciIiIiImFC4VxERERE5BSd8mO//9v5QzWRw7CHaioRERERkbDkcpTua4JCFs4j3GX4PiMRERERkTPA6SrdgnQIK+cGhqEuGRERERE5N7mcDgzbWdLWAhBdPgKb8rmIiIiInGMcDgN3pLPU17FZlmWFetK8fB+maYZ6WhERERGRMudyOsokmEMphXOAgGni8wQImMHSmF5EREREpNQYhg2Xw4HTZS/1VpbiSi2ci4iIiIjI6VGHuIiIiIhImFA4FxEREREJEwrnIiIiIiJhQuFcRERERCRMKJyLiIiIiIQJhXMRERERkTChcC4iIiIiEiYUzkVEREREwoTCuYiIiIhImFA4FxEREREJEwrnIiIiIiJhQuFcRERERCRMKJyLiIiIiIQJhXMRERERkTChcC4iIiIiEiYUzkVEREREwoTCuYiIiIhImFA4FxEREREJEwrnIiIiIiJhQuFcRERERCRMKJyLiIiIiIQJhXMRERERkTDxvxvOLQ9ZGQcwz/R+/DcsDxkZB7DO9H6IiIiISEj9z4Zz/7opPPT8D2SfhencyvuV1x+ayE8FZ3pPRERERCSUQhPOrRw+u7sTLS9uT6vD/zrRZ+xaAiFZIMSsXBZ/8DMXXJ9MVQOw9vPLpEfp27kbbboM4qEp6zhwgrK0f9t8Rg3qR3LbHnQfMo5v0oOnuzj5Gxfy1uj76dmmB49/V3jibxZsZNqI2+iS3I0OfR5iwvIcTMBW4VJuvGwzU+ZlnJ2VfxERERE5rhBWzp20uv9jli9fyIrlC1mxfD6f3XsBjtAtgGWaIWnlsHJ+YE5aC7o0cQEW+xePY8Ssitw1+XMWvHczkdOeZuxyz7EbBrcy+bHXSWvzFLO+mcpzl25kzFNfsOM0E7KFg5i/NaRO1Mm+5eO3CU/zjrcXb8z7gukP12bxEy/z9V4LsFOv02Xkf7WYXUrnIiIiIueMMmlryZ87gvYPfMxXrz/B4P4D6Np1IMO/TDtcVQ9mLGP8fbdxVdfedLn6Pl5esocgQHAD4667i9fmfcIjA/rT874vSDe9bPzsWQZdexPdO3el1UXtaNGqA33G/caiJ/py9avr/qzWF67kuZ4388qaI+v3nt9WsPW8ZjRwABSwbN4y4vvcRLtqTlzxrbnpynIs/molvqOOI7h5MfMzL2XA9edR3lGeC/r1ocWmb1i483QSso2oBm3o06ctDSvYTvy1wjV8tdBGysCuJEY4iGnVjz6JvzJ3aS4WYNRsSuOcX/l5nzrPRURERM4VZdRzbuFZ9g1/NL6LCZPfY/rw8/jt9Y9Z7gcCW3j/oWf5+W/38P7sz/jy+SvY8uIrzM4sCrzBLUybmkmfse/x5Uu9id/0EU+8mUuPl99h1twP+FfX2lwy7G0+uL0Zl1/VGv+ihawu6hQJrPuBHyMup8N5xev3QXZs3k7VurUOVvWDu9m63UFi3apFJ8OgVr2a+FK3kXlU5i5M28au6kkkOos+cNeiblw6W9JOt7WlZGZOGql5NalXx37wA6MSSUnl2L4l/WAri7029Wvs4D+poV9bRERERM6MEIbzQn5+7hpatWpHi1btaNV9LL8UK1g76iZz7RXVcGIjqnEjkgp2sXO/RWDNXD7f1557BjWlst1GRFIKvRpt5IeVh+rWdlpd35+LKh3cVX/qFnbUupCL451gr8LFFyWwblUaDqeBq3kXuji+Z97vfiDIhiXLcbZtS8MjemtM9u/No2LligcP3vLh8bqIjPyzim2PiMTp9eI94vgsfB4vZmQkf341EnekH4+3FKrXXi9eWySRrkMf2HBHuvB5vQdbe2xuKlf0krNflXMRERGRc0UIW8KdXPTgFMZfW7XkxO9w4sDENC2CGRlkZq1h1C2/caggXXjAQYMr/EX95Q7Kl484vGnE+c24IP0nFm+7iutrZPPN4q3UbZF08EAcDeiWUom7v17JP1tU4tuldto+Vh/7UcubpgVGUcI2Iinn9rHP82fIDXi9FLrduI/YykZEOTd2rwevBdgAy4vHG0E5d/H2FD/fjb6FZ773A3YSrn6aiYMbHLMPJbG53bgtLx4f4AIw8RT4iYxyc2g1m82GaSmci4iIiJwrQnm/5n/FHluVKlXaMeK9u7nQedRgcPcx3zdqXkHXhrP5ZMwDLDAdVL3wXp6+rtbhlpQ6XTtT8/ZFLN+QwE9cxvAGR8dig+iK5cnPPYBJOQwjnrp1LJZuycC8vAYGQdI2bScy8cqDT3IpxpWYRMKurWz1Q81IoGAbm/fUoFli8TVctB4+hXl/8bzYKieSVPETNqcGoIkDzBy2bPVQp2dC0bH6yc1zUCHqJH3rIiIiInJWOePPOXc07kKPCgt59c2f2eO3IJDL5j+2cKL7HIMbZvLRnit47NWxTJr4Is/edTk1il1iGPHtuOpvv/Pha98TaNOWvx1TsjaokRjPntSi3m3cXNL1UjI+fY8F6T586YuZPMdHh5SmuLDI/m4Cwx7/gk0BMJLa0qX6Mt75YA25/lxWTf2M387vSHJ8aE6juWM+o4a9yNx0ExwNSeloZ+6kWWwq8JO97CM+3d6KlMuiD1bOgztJ3RVPUq3TrcmLiIiISLgqtZ7zFq3acen9CyjxPTnOvzHo+Ye5ZNsbDOjSnTYpd/DMjLVknuDx3/akS/m7dxqDO6VwRZsUWif3psfAZ5i2vqhD3FaZdt0bselXP23aJx2nncRGdPNmxK5fTZpZ9HPru3imZz5vDOhFh1s+pPD6EQxtGQlY5O3cyKpVqWQXAkYdbhg5lPpLn6R7hxt4eMX5DB/RnYTTOYuBtbx6bTcubzeUd7fkMvehq7g8+R9MTjOx9m9n9ar1pO23ABdNb32UwVGzubNrD/r+O50OI++hY6WDlXIzew2rjaa0iDvj11ciIiIiEiI2yzqbmpZNdn02nAc2X8sbD7SgPGB697Bg9L08H3E/sx+9CCfg+/ll+o6N4aX3BlD/eNnV3MO0e58mb9hYBtc9G8Otya5pDzE87y7eHpx05v/8ISIiIiIhcZblOpM9qTsoCAQpPPSYQ382qbssGjaqjR0LM38jUycto+41XTlh7jbiSOlXh+8+WkF+We16KPnXM32em6t7Jp5tv0AREREROYmzrHIOZtYvTPr3W8z5jweX24nNEUPzngO5s3cDvDMepu/LW6jX45+MGXYF1U6WXM0sVv9ygMRWiZx191R6d7Jig8GFzaqf9lNgRERERCR8nXXhXERERETkXKWuCBERERGRMKFwLiIiIiISJhTORURERETChMK5iIiIiEiYUDgXEREREQkTCuciIiIiImFC4VxEREREJEwonIuIiIiIhAlHaU0cME18ngABM1haS4iIiIiIlArDsOFyOHC67Bi2snudfKm8ITQv34dpmqGeVkRERESkzLmcDtyRzjJZK+ThPDffg6VcLiIiIiLnEIfDoLw7otTXCWnPeV6+T8FcRERERM45gYCJx1tY6uuELJwHTFOtLCIiIiJyzvIXBjBD3xF+hJCFc58nEKqpRERERETCUqG/dB92EsLKuZ7KIiIiIiLnNn+gdAvSes65iIiIiMgpMs2zpK1FRERERET+GoVzEREREZEwoXAuIiIiIhImFM5FRERERMKEwrmIiIiISJhQOBcRERERCROOMl0tmMGPb7/ChNlr2WNUo0WvIdzXvwVVjnuJYJI2dRiD39xA8adJuto+wsyRbXCdwnzWvlVMeWk8ny1Pp7BKQ7oMuZchbarj5NTGRURERETKUhmG8yCp08fwzJJ47hj9Gi2N35gwcgxjKr3Csz2rH6eEb1GQl4+91e288c+LiSj61HDHFIXnEuYzM5n33ChmWH159I02VPrPRzz13GiiE15iQH0HlDQuIiIiIuec5OQUABYtmnuG9+T4yq6tpXAts77YRtObhtCtUQLVG6Yw9PokVn8+n83HfbmoSWVmBxkAACAASURBVP4BD+Wr1aZWjQRqFP2rHhOJ7RTmM9MWMOPXBPoOvZoWtatRt/0gbm61hy+/XImfksdFRERERMpamYVzc/c61uTUomnjCgfDNQZVGjWm+q61rNlrHmcLi/x8L9GVoo+7kyefL0jeurWkxTaiSXzR1rbyNG6WyIE169getEoYD/3xi4iIiIiUpMz6N4KZmWQRQ2yxBnMjNpZYstmTZUHVozawvBw4ECDn+7EMmp1Otj2GpAu7cOtdfWhW2ShhviBZGdlQpWWxfnaDirFVsGdlkmmacNJxqGcvxZMhIiIi8j/kUCvJiZR2i8nx1i/+WTi1uJRdc3XAj9/mIqJY6LU5nTjw4/dbx37f5qZptxu50XYJKX+vgT39JyY+/QKPjYli4r+6ElPCfH5fIThdOG3Fxl1OHIU+Ci1KHBcRERERKWtlFs5tzggirDx8xVpGLL+fQlxERNiOs4WTmm2u4dpDP9a+nDtuW8F3jy3mx+zOdD/pfAYRLicU+g8G7aLpLZ+fgCsSl81WwnjID19ERETkf9aZrkwXX183hB5aqGocsewlM+vP/nIzO4ssYqkWe2q74YyNpbItl/15Jc1nJzY+FltmJn8Om+Rk7SVYtSpxdlsJ4yE5ZBERERGR01J24Tz+AhpX2cHvf+RwsGvEJOOPVeyu2YjGlY9TqvbvY29e8RtFLfZt3Ei6PYEaVW0lzGcQdUFjEveuYuXOojmsfFb9vpUKjRtRw7CVMF6KJ0JERERE5ATKLoY6zqd7r0TWTJ7AzA0ZZKyfw+vTttGsV2eS7IC5g8/u60fvB2aTblpkf/MSt909hinfb2DH7h2sX/IhoyeuJK57Ty6PtpU4n1GzA70vyuTTV6fz+64sti58i8m/1qDnVY1xUfK4iIiIiJx7Fi2aG7YtLQA2y7JCcvvj/jxPyV8KZvLjpJcZP3M1e2zxtOx9B/cPuJAYAzB3MOPBB/jA3p9X/3UlCexj9ReTefeLpaze6SEyLpHmnW/kzhsvoprjFOYDrP2rmPri63yyLJ3CKheQcvs/GNIm/nCjfUnjIiIiIiJHqxjtLrW5yzaci4iIiIic5UoznKu7WkREREQkTCici4iIiIiECYVzEREREZEwoXAuIiIiIhImFM5FRERERMKEwrmIiIiISJhQOBcREREROUWGcZw324dy/lBN5DDsoZpKRERERCQsuRyl+7rKkIXzCLfeqykiIiIi5zanq3QL0iGsnBsYhrpkREREROTc5HI6MGxnSVsLQHT5CGzK5yIiIiJyjnE4DNyRzlJfx2ZZlhXqSfPyfZimGeppRURERETKnMvpKJNgDqUUzgECponPEyBgBktjehERERGRUmMYNlwOB06XvdRbWYortXAuIiIiIiKnRx3iIiIiIiJhQuFcRERERCRMKJyLiIiIiIQJhXMRERERkTChcC4iIiIiEiYUzkVEREREwoTCuYiIiIhImFA4FxEREREJEwrnIiIiIiJhQuFcRERERCRMKJyLiIiIiIQJhXMRERERkTChcC4iIiIiEiYUzkVEREREwoTCuYiIiIhImFA4FxEREREJEwrnIiIiIiJhQuFcRERERCRMKJyLiIiIiIQJhXMRERERkTChcC4iIiIiEiYUzkVEREREwoTC+RljkZeRRYF1pvfjv2GSl5F9lu67iIiISPj6Hwznhfw4qg+9XllD4HjD3p/5V4/e3P3ZHkwgf+6jtL5lKtvMY8f+kvyfGfvwu/xy4CxMuGY23zw7knfXFZ7pPRERERE5p4QmnFs5fHZ3J1pd1pXLW3eldef+DHr0XRan+UIyfZly1Sfl1gFc2yrm2JNz9Jh/CY90fJIF/tNdxGTX7Olsad2Xy6NtgMmeJRO4o1dPWidfQ/+n5rD5BKfOKtjItBG30SW5Gx36PMSE5TmneaFgkb9xIW+Nvp+ebXrw+HcnCdjWfn6Z9Ch9O3ejTZdBPDRlHQcswKhKyvV/Y+lHP5J7Fl5biIiIiISrEFbOnbT852S++24uC6Y+xjUxy3lyyFPM3PWXa8ylxHb8j43KNO/Rmza1nSWOWfl55AX+i3Rq7uTrr/207VgbAzB3z+bpUb9w/oj3WTT3RXrtm8Sj72w8TmXfx28TnuYdby/emPcF0x+uzeInXubrvae3DxYOYv7WkDpRJ//W/sXjGDGrIndN/pwF791M5LSnGbvcA0BE8/a02LSA7/crnYuIiIiESim0tdiIqNKAlP97knsb/MGbU1ZRCBTu/oUPnrmPq7t04/I2fbhh5DxSi4q2Zvon3Nr7OaZ/OY5/DLqNXinX0H/MEvYcyvWFu1j8+ghu6tGT1m370v+JWWzyAVYBG2Y8z219r6VTl37cOGIGa/MtwGTvH1/y738OpmtyV67oeAv3T9lAQfHd3Ps77zxyK51adyW578O8sTwHCyC4gXHX9Dx+RbnYmLltOnf1G8fygqU83b03XW+fworPHyZ50MdsP3w9ks83w3szcPLOI6rbVvavLM9vRMsEAzDJXLKQ1Y37MrBlRRyRtbjqhtYcmL+Q9cGj1i9cw1cLbaQM7EpihIOYVv3ok/grc5fmcuoR2UZUgzb06dOWhhVOcIECQAHL5i0jvs9NtKvmxBXfmpuuLMfir1biA3DUp+XfNvHjyrPwryMiIiIiYar0es6NWNq0O4+9K1ez0wTDn4/zwoG8+ukXLPniEZqufp3XFv4ZKs09P/D17tY88dZEPnt/EDHz32b6+iDg5ffxj/DkTwkMeW0qC+eN5Z5O9ajqstj/7SsMe89Lrxff5+u5b3BvpVk88fZaCoHgAah/40g+/moO88a2JWPi63yRfigiW+z5YwPl+47my0WfML6PxSdPvMF3B07j8Opcw2vjb6B+5GU8NmsG8964gZbtu3LJjkXM31a0TsHvfPt7TTokVz/iRAdSt5KWkEhtO0CQtK3pVEmqTVRRVnbWSaRG1jZSC45c08xJIzWvJvXq2It2ohJJSeXYviX9r/fAHy24m63bHSTWrVq07wa16tXEl7qNTBPARWLdGLZt3h36tUVERET+R5XiDaE2oitVwDhwgAMW2Gu3od+VjYmzMvnPZg/lY4Js2lCsouxoyFXXNSXGAKNKQ5pWz2L7riB4fuHTmR663DOYNrXK4XQncPEVDanIPhZ9tpTEm+/iytqR2IxKXNSnHe7lP7M1aFD1sh70vqgGzn1b2ZjlorIrlQ1bgof3rVq7a7m2ZRxuRxTn9+1LW2sF36/9azc42ipcylVtcpg/fytBwPv7UlbUaENywpGn2dy3j0ClSkQW/ez1+IhwRx5utLFFRBCJD4/3qHq414vXFkmk689z7I504fN6T6NyfoosHx6vi8jIP6vr9ohInF4v3qK1K8VUIDd7v8K5iIiISIg4Sm9qk33Z+zArNKCCDczsX3nn2Yl8k1ud5i3Ow7DZCQQCWByv+9uOw2FhBk3MvAwyfPEkH90Dbu5ld6aPte8+wPXTD33m54ArGT8Wuatn8PzLc9lRuSEtG0djcwQoPO7jWQB7BSpFe9jxl5+cEslF3dvg/ddCNgyqRd63v1Ej+SaqH3UJZFkWNtvhKI67XATegj8Dtun14MVNefeRZ8bmduO2vHh8gAvAxFPgJzLKXewcWmTNepKBr6+mEHCc1583XuhJjdO9DDMiKef2sc/z5zkJeL0Uut24i/bbMGxYlnrORUREREKl9MK5mcHiRRuIa3ErCYaH78Y+w4I6o5g0tCFuCln2r+l8ewrTGNFViXXuIW1HEKoVS5hGZeKquLjgmn8zrk/MkQE/sJoXH/8E530TePvyCtiCmxg/90t2nGANK38Hqdkx1Iqzn94x2gCsI6rWriZd6ep4mgWrW+H/pRrtb652zJ8n7NFR2PLyCABODGrXq0nO99vIsxpSyXaw7WV7tUQS3UctVzmRpIqfsDk1AE0cYOawZauHOj0Tiq1hI7b7SGZ2P71DOYYRT906Fku3ZGBeXgODIGmbthOZeCVVDQCT3P0HKF8h6kS31oqIiIjIaSqFthYLf/YG5jw/kvHbLub2687HYRWyf78Hw24H00/Wyll8tizv1KZzt6BHZ4M5497hh3QPAc8efp61mPW+yrTrfQlb3h/HFxvzMDHx7FrHmvRCMA+Qm2fgsINVmMv6uTNYnH7ELZnkrPyeH7d7CORv55txk1leszNXNjw2nBt2OwQCHH1vJoCtYiUqs4ONm3yY/sKD37EncWVKBb59czLL4lrTLv7YU2yvVZv4XdvZaQIYxLbuSLO103nrp734C1KZ8eFSKndqz3l2MHfMZ9SwF5mbboKjISkd7cydNItNBX6yl33Ep9tbkXJZdGgCsn8zHz82grE/5GDh5pKul5Lx6XssSPfhS1/M5Dk+OqQ0PVi0J8j21ExqJFbnNC9pREREROQEQhjOC/nl5f60bp1Ch+tHMSP/CkZNHE7XOANs0bQfdBOx8++nS8f+DPu0kLadGpxiqCvHJfeO5oGG6/l3/94k97qfN37ZS8APMe2H8fLAKOY8dBPt2vWk1/+9z7epuZiuC7nxzgasfPx62vX8P97a1YquFxb/I4GdvzWpwg+jh9Cl+72MT7+YJ/51HX87zg5FNGzFhRkf8ewnx974aItpy83XRTHrjl50GDCJPwoBDGp07kT8qjXEtLv8iGL/IUb1ZjQPrOWPokcgGnFdGP7YJWweczPJKfczO/ZWRt1cDztg7d/O6lXrSdtvAS6a3voog6Nmc2fXHvT9dzodRt5Dx0qnEc0Da3n12m5c3m4o727JZe5DV3F58j+YnGZCYC9bVq1h/c4CLGxEt76LZ3rm88aAXnS45UMKrx/B0JZFnfLBNFaur07L5u6TryciIiIip8xmqWk45Ky8RTzcbzYXvfscfeOOd/0TZOOb9/Bq7JO80qfqWfma1uDGdxn8WgzPvtTjuBcgIiIiInL6FKtCzdzPL+98xLpL+tC56olOr536vXvgmvMl60/77aJhwDrA0mnLqd+vg4K5iIiISAipch5C5qbJ3DzoI/Y1vYbHR93MRSdtNwmwc+VqrPOaUzPyJF8LR9YBNq3YTsWWDTnh9YeIiIiInDaFcxERERGRMKG6p4iIiIhImFA4FxEREREJEwrnIiIiIiJhQuFcRERERCRMKJyLiIiIiIQJhXMRERERkTChcC4iIiIiEiYUzkVEREREwoSjtCYOmCY+T4CAGSytJURERERESoVh2HA5HDhddgzbyd76Hlql8obQvHwfpmmGeloRERERkTLncjpwRzrLZK2Qh/PcfA+WcrmIiIiInEMcDoPy7ohSXyekPed5+T4FcxERERE55wQCJh5vYamvE7JwHjBNtbKIiIiIyDnLXxjADH1H+BFCFs59nkCophIRERERCUuF/tJ92EkIK+d6KouIiIiInNv8gdItSOs55yIiIiIip8g0z5K2FhERERER+WsUzkVEREREwoTCuYiIiIhImFA4FxEREREJEwrnIiIiIiJhwlGmqwUz+PHtV5gwey17jGq06DWE+/q3oMpxLxFM0qYOY/CbGyj+wBpX20eYObINrlOYz9q3iikvjeez5ekUVmlIlyH3MqRNdZyc2riIiIiISFkqw3AeJHX6GJ5ZEs8do1+jpfEbE0aOYUylV3i2Z/XjlPAtCvLysbe6nTf+eTERRZ8a7pii8FzCfGYm854bxQyrL4++0YZK//mIp54bTXTCSwyo74CSxkVEREREyljZtbUUrmXWF9toetMQujVKoHrDFIZen8Tqz+ez+bjvLzLJP+ChfLXa1KqRQI2if9VjIrGdwnxm2gJm/JpA36FX06J2Neq2H8TNrfbw5Zcr8VPyuIiIiIice5KTU0hOTjnTu3FCZRbOzd3rWJNTi6aNKxwM1xhUadSY6rvWsmaveZwtLPLzvURXij7uTp58viB569aSFtuIJvFFW9vK07hZIgfWrGN70CphPPTHLyIiIiJSkjLr3whmZpJFDLHFGsyN2FhiyWZPlgVVj9rA8nLgQICc78cyaHY62fYYki7swq139aFZZaOE+YJkZWRDlZbF+tkNKsZWwZ6VSaZpwknHoZ69FE+GiIiIiMhxlF1zdcCP3+YioljotTmdOPDj9x/nNag2N0273ciNtktI+XsN7Ok/MfHpF3hsTBQT/9WVmBLm8/sKwenCaSs27nLiKPRRaFHiuIiIiIiERkltJIsWzS3z9Yt/Vtrrn44ya2uxOSOIsPz4irWMWH4/hbiIiLAdZwsnNdtcw7WtaxPtsFOu9uXccVtbXL8v5sdss4T5DCJcTij0HxG0LZ+fgCsSl81WwnjID19EREREpERlVjk3qsYRy0Yys0yodfCawMzOIotYrog9tWsEZ2wslW0b2J9X0nx2YuNjsWVmkmXCwbZyk5ysvQSrNiPObqPKScdL5RSIiIiI/E8605Xp4usfqpif6X06kTKrnBvxF9C4yg5+/yOHg8Vqk4w/VrG7ZiMaVz5Oqdq/j715xW8Utdi3cSPp9gRqVLWVMJ9B1AWNSdy7ipU7i+aw8ln1+1YqNG5EDcNWwngpnggRERERkRMouxjqOJ/uvRJZM3kCMzdkkLF+Dq9P20azXp1JsgPmDj67rx+9H5hNummR/c1L3Hb3GKZ8v4Edu3ewfsmHjJ64krjuPbk82lbifEbNDvS+KJNPX53O77uy2LrwLSb/WoOeVzXGRcnjIiIiIiJlzWZZVkhuf9yf5yn5S8FMfpz0MuNnrmaPLZ6Wve/g/gEXEmMA5g5mPPgAH9j78+q/riSBfaz+YjLvfrGU1Ts9RMYl0rzzjdx540VUc5zCfIC1fxVTX3ydT5alU1jlAlJu/wdD2sQf7uUpaVxERERE5GgVo92lNnfZhnMRERERkbNcaYZzdVeLiIiIiIQJhXMRERERkTChcC4iIiIiEiYUzkVEREREwoTCuYiIiIhImFA4FxEREREJEwrnIiIiIiKnyDCO82b7UM4fqokchj1UU4mIiIiIhCWXo3RfVxmycB7h1ns1RUREROTc5nSVbkE6hJVzA8NQl4yIiIiInJtcTgeG7SxpawGILh+BTflcRERERM4xDoeBO9JZ6uvYLMuyQj1pXr4P0zRDPa2IiIiISJlzOR1lEsyhlMI5QMA08XkCBMxgaUwvIiIiIlJqDMOGy+HA6bKXeitLcaUWzkVERERE5PSoQ1xEREREJEwonIuIiIiIhAmFcxERERGRMKFwLiIiIiISJhTORURERETChMK5iIiIiEiYUDgXEREREQkTCuciIiIiImFC4VxEREREJEwonIuIiIiIhAmFcxERERGRMKFwLiIiIiISJhTORURERETChMK5iIiIiEiYUDgXEREREQkTCuciIiIiImFC4VxEREREJEwonIuIiIiIhAmFcxERERGRMKFwLiIiIiISJhTORURERETChMK5iIiIiEiYUDgPB5aHrIwDmGd6P/4bloeMjANYZ3o/RERERM4B5344t3KY9/DVdH18CfvDNEH6103hoed/IPssTOdW3q+8/tBEfio403siIiIicvYLaTi3cr/h/vad6PT4D+SHcuLT4V/CIx2fZIG/6GdbBZr1GsBt3c8n2namduokrFwWf/AzF1yfTFUDsPbzy6RH6du5G226DOKhKes4cNyLCpM9SyZwR6+etE6+hv5PzWGz73QXLyRtyUf8e9hA2l3xMF/mnvjqxSrYyLQRt9EluRsd+jzEhOU5mICtwqXceNlmpszLODsr/yIiIiJhJITh3GL/99+yvV0Pmv2xiGUHQjfzae1Ffh55geIh0071S3ty9cVxYflnAivnB+aktaBLExdgsX/xOEbMqshdkz9nwXs3EzntacYu9xyznbl7Nk+P+oXzR7zPorkv0mvfJB59ZyOB01sd0x5FYpMkKp/0wsXHbxOe5h1vL96Y9wXTH67N4ide5uu9FmCnXqfLyP9qMbuUzkVERET+ktDlVWsf332zjQu7Xk/H81bz9U/F+5C9bJ7zKnffcC3JbbrTfcgrzN8ZBCz2/f4xIwbdRKfknnQf8BgTlmYSBOAAs4alMOC97UUVWZP0qffS+t457LMAM4cfxz9In5TedOxyA4Oemsm6DdO5q984lhcs5enuvel6+1Q2mYX8OKoPvV5ZUxRcLXJXz+CpO26hS3IK7fs8yGtL92IGNzDuuiG88OWnjLr7Lvr1vJrut7/F8sO9MAf3dfjAG+na5Wp6DH6R2akHy/NW3homPziYlM696dR9CA+9/wf7LfBtns0TA/rRqXNvUq57hNd+yDqmuuz5bQVbz2tGAwdAAcvmLSO+z020q+bEFd+am64sx+KvVnJkUdwkc8lCVjfuy8CWFXFE1uKqG1pzYP5C1gdP55fmIvHy7lx9ZROqniycF67hq4U2UgZ2JTHCQUyrfvRJ/JW5S3OxAKNmUxrn/MrP+8K0b0hERETkLOEI1UTW3h9ZkHohNzavwnn7zuPVBcvJ7dCeijaL/Ute4d6X99B79Dieb16eXcvXEIyxY6bP4rEHZ1HlvmeY0T6O/T+9zQOPP0HEhLEMrH/y9YLrP+GFmRUZOuVTOkTvZ81vmVRv0IDXxnu5aeBmBs0aSUcXQCGZxbYzd8/j8WEfYb91JFPH1sfYsoKN5aIxyITgVhYstvHSmNcYEbmD94bczoTZV9LqhgTYNYfHH/mahOEvMbN1ZbK/fo47n/qURm/1wzlzApO8PZk6twdx+Vv5ZVsU0eQy7/XxbG33KrMH1SGQ9gcbbRWPuhoKsmPzdqrWrXXwFxHczdbtDhJ7Vi36nkGtejXx/bSNTPNSahp/bpe2NZ0qSbWJKgrVzjqJ1Mj6idQCaBz9F3+ZRzFz0kjNq0mPOvaDHxiVSEoqx0db0jGpiN1em/o1drAhNQgxIfsvJSIiIvI/J0SVc4usJd+y/ZI2NHfZqHBpWxqvXswPuRZY+1j8yRKi+g5lYKs4Ih3lSbrsYuq7TbZ9NZPfG/Tjns51iHK6qdF6ILdeks7ns9aX2J5hq1CFKoGt/PTjJnKoTKOLGlCpxJ5yk7R5X7Ci7nU82LchMS4nlc7/OxfXdhaNl+Oi3ldxfpQNHNVpckFFdu/Yg4lJ2lezWNfqFu5pHYcTJ/Htu3PZvhUsz7IoFxuDY8fvfLc6i0B0Ehc1qYphcxETG0Xmyh/5daePyNrNaV7Lecz+7N+bR8XKRaHd8uHxuoiM/PNA7BGROL1evEdt6fX4iHBHcuibtogIIvHh8ZZC9drrxWuLJNJ16AMb7kgXPq/34F9HbG4qV/SSE6533IqIiIicJUJT5jSz+Hb+StJXr6bjnIMfBXzg/34/KV33sivDpFZiDexHbBQka89eyteoToXDWTSShJqV2LstmyCJJ13SqNmLZ1+KYNLbY7hunIuLb7iTf97QjMon3SpI5u5somrXJuYULkscTgdWgYlFkMzdmeQve5PBN7x7eK6CQFVqem1U7vQg4/mIiS/cyUR/Q66+eyiDr6jGpcNeZPiU95l45w08m9iZO/9vIJ2TIo88daYFRtEJMCIp5/axz/NnyA14vRS63biP2MqGu1wE3gLv4dYh0+vBi5vy7mJXKIHVjBv4FLOyTSCKjiMncv/FR18glMzmduO2vHh8gAvAxFPgJzLK/efFgc2GaSmci4iIiPwVIQnnZsb3zE9L5vmvH+KKSACL7M8f4tr5P7I35RLiYmFJ2i5MkoqV6u3EVosh/9fd5FpQxQbgY9fOfVSuVgU7BoYN/D7/4S0s0yzWx25QqVE3hr14JXekfsWoe0fyUs0Pear2wfWPHxPtxMZVJn/FTnLMlsSd8t8N7MTGVaHcxTfx9qjWlD9mvDz1Ow/m2c792b3kde59/AXiPn6W3lUTaD3wYVr3z+GXN0dw/xOfUv/dG6l7eF2D6Irlyc89gEk5DCOeunUslm7JwLy8BgZB0jZtJzLxyoNPcil27LXr1STn+23kWQ2pZINA6la2V0sksXiKdzTm7snTuPtUD/MEbJUTSar4CZtTA9DEAWYOW7Z6qNMzoej36Sc3z0GFqHB8HI6IiIjI2SMEbS0muxctZkuTS2h+uChso/LFF5P4xyKW7K1E2x6Xkjn9dSb/noUvkE/q93NZkmZSp0s3mq7/iFe/2saBQi/p301i4o/x9Ox2Pg5c1KhZmZ0/L2Nzvo/sVTMYN2Mrh+53LFgzm3fnbCLXtFEurg4JURZB08JWsRKV2cHGTT5MfyFH3h9pUKdzChesn8ILX2xkn7+Q/Ru/ZeayY2/UPPo01elyJQ1WvMsrC7ZTYIKZv4M/NmRhUkjqvCl8unIvhbiISUygIkGCwT0snvwJP+3ygaMCterE4DCDR61jUCMxnj2p6UWfu7mk66VkfPoeC9J9+NIXM3mOjw4pTXFhkf3dBIY9/gWbAgaxrTvSbO103vppL/6CVGZ8uJTKndpznv04u/9fMHfMZ9SwF5mbboKjISkd7cydNItNBX6yl33Ep9tbkXJZ9MHKeXAnqbviSaoVosVFRERE/kf99XBu7mbhgi1ccFnzIyrKRnwrLquxhvlL9lK50zBeGlyFxY/dQvuON/PA1I3kFgYwEroz6tnuBKYNp1enaxny5h5aP/UUNzdwAA6a9LuVTgXT6N/pGoa856fPkHZUKtpjm9vN/gVjuD6lD52ufoY/LvwHQ9uUxxbTlpuvi2LWHb3oMGASfxQedcA1ezJ6THf4dDhXdejD9U9+zVZPYYnP6DZq9GD0s13xfHg/3dp3o8O1T/Ph8t0csMAZVciKl+7mys696X73Ymrccxfd41xEGZt4a+iNdOp8Dbd8aND/wd7UO+KM24hu3ozY9atJM4t+bn0Xz/TM540Bvehwy4cUXj+CoS0jAYu8nRtZtSqV7EIw4row/LFL2DzmZpJT7md27K2MurkepxOPzbSPuTW5K62vfp1fPT8zulsKra99k1UBsPZvZ/Wq9aTttwAXTW99lMFROJ/4tAAAEYtJREFUs7mzaw/6/judDiPvoWNRk7+ZvYbVRlNanPqfIkRERETkOGyWpUbhM8rcw7R7nyZv2FgG1z0bw63JrmkPMTzvLt4enBSWz5IXEREROVsoS51pRhwp/erw3UcrztxbVf8K/3qmz3Nzdc9E/WcSERER+YtUOQ8HZharfzlAYqtEzrp7Kr07WbHB4MJm1U+rpUZEREREjqVwLiIiIiISJtSJICIiIiISJhTORURERETChMK5iIiIiEiYUDgXEREREQkTCuciIiIiImFC4VxEREREJEwonIuIiIiIhAmFcxERERGRMOEorYkDponPEyBgBktrCRERERGRUmEYNlwOB06XHcNWdq9wL5U3hObl+zBNM9TTioiIiIiUOZfTgTvSWSZrhTyc5+Z7sJTLRUREROQc4nAYlHdHlPo6Ie05z8v3KZiLiIiIyDknEDDxeAtLfZ2QhfOAaaqVRURERETOWf7CAGboO8KPELJw7vMEQjWViIiIiEhYKvSX7sNOQlg511NZREREROTc5g+UbkFazzkXERERETlFpnmWtLWIiIiIiMhfo3AuIiIiIhImFM5FRERERMKEwrmIiIiISJhQOBcRERERCRMK5yIiIiIiYcJRpqsFM/jx7VeYMHste4xqtOg1hPv6t6DKcS8RTNKmDmPwmxso/jRJV9tHmDmyDa5TmM/at4opL43ns+XpFFZpSJch9zKkTXWcnNq4iIiIiEhZKsNwHiR1+hieWRLPHaNfo6XxGxNGjmFMpVd4tmf145TwLQry8rG3up03/nkxEUWfGu6YovBcwnxmJvOeG8UMqy+PvtGGSv/5iKeeG010wksMqO+AksZFRERE5JyTnJwCwKJFc8/wnhxf2bW1FK5l1hfbaHrTELo1SqB6wxSGXp/E6s/ns/m4Lxc1yT/goXy12tSqkUCNon/VYyKxncJ8ZtoCZvyaQN+hV9OidjXqth/Eza328OWXK/FT8riIyP+3d6fRUZT5Hsd/1enuLJ2EQIIEUAZQQQMCAkEURUV2UBAVHRhwG4ZFB7zKuIw6rgM6XkCccQUHERdcuB51UO5ctrC6IogQ0EEUQnZCtu6Y7nTXvAiQANEOd7rTlfD9nJMXydP1r6fq5MWvn/OvegAAaGgNFs4DuZnacegMdeuaWB2uZVNyl65qnbNTO4oCdRxhyu3+SQlJCXVO8pfr+VWWuVP7UrrovNTDRxsude3eXuU7MrXfbwYZD/31AwAAAME0WP+Gv6BAhWqhlFoN5raUFKXooPIKTanlcQeYP6m8vEqHNjyjW5Zn62BUC3U4f4h+O22Muje3BannV2H+QSm5V61+dpuapSQrqrBABYGA9Ivj0plRYbwZAAAAp5AjrSQ/J9wtJnWdv/bfrNTi0nDN1VVeeQ2nomuFXsPhkF1eeb3miZ83YtVtxHiNNy7QsAvbKir7Ey14bI4efCJeC2YPVYsg9byVPsnhlMOoNe50yO6rlM9U0HEAAACgoTVYODcc0Yo2y1RZq2XE9Hrlk1PR0UYdRzh0ev/rNPbIr+36acqkL7T+wbXafHCwRv5iPZuinQ7J560O2ofLm5VeVTlj5DSMIOMhv3wAAIBTVqRXpmufnwdCj5yo5WlKUZEKCmv6ywMHC1WoFLVKqd80HCkpam6UqqQsWL0opaSmyCgoUM1wQIcKi+Rv2VKnRRlBxkNyyQAAAMBJabhwnpqmrslZ2vr1IVV3jQSU//V25Z7eRV2b17FU7S1WUVntB0VNFX/7rbKj2qhtSyNIPZvi07qqfdF2bTtwuIbp1vate5XYtYva2owg42G8EQAAAMDPaLgYaj9HI0e3144lL+jD3fnK3/WRnnv7R3UfPVgdoiQFsvQ/d12vq/+wXNkBUwdXzdOk25/QGxt2Kys3S7vWva5ZC7bptJGj1C/BCFrPdvoVujq9QMv++o625hRq7+qFWrKlrUZd2VVOBR8HAABA07NmzceWbWmRJMM0zZA8/lhSVhH8Q/4Cbf7703r+w2+UZ6Sq19VTNHPi+WphkxTI0nt3/0GvRU3QX2cPVxsV65v3l+iV9zfpmwMVijmtvXoMHq+p49PVyl6PepLMku16c+5zevfTbPmS0zRs8gz9rn/q0Ub7YOMAAADA8ZolxIatdsOGcwAAAKCRC2c4p7saAAAAsAjCOQAAAGARhHMAAADAIgjnAAAAgEUQzgEAAACLIJwDAAAA9WSz1bF5Zijrh6qQ3cae9wAAAGjanPbw7ogTsnAeHcvWPQAAAGjaHM7wLkiHcOXcJpuNLhkAAAA0TU6HXTajkbS1SFKCK1oG+RwAAABNjN1uU2yMI+znMUzTNENdtMxdqUAgEOqyAAAAQINzOuwNEsylMIVzSaoKBFRZUaWqgD8c5QEAAICwsdkMOe12OZxRYW9lqS1s4RwAAADAyaFDHAAAALAIwjkAAABgEYRzAAAAwCII5wAAAIBFEM4BAAAAiyCcAwAAABZBOAcAAAAsgnAOAAAAWAThHAAAALAIwjkAAABgEYRzAAAAwCII5wAAAIBFEM4BAAAAiyCcAwAAABZBOAcAAAAsgnAOAAAAWIQ9HEU9ngqVlpaq3O2Rz+sLxylgIQ6nQ/GuOCUmJiouLjbS0wEAAGi0DNM0zVAWzM3Nk9vtUVJSMyUkxMvpdIayPCzI6/WqrKxcxcUlcrnilJraKtJTAgAAaJRCGs737cuSw+FQ69aEs1NVTk6efD6f2rU7PdJTAQAAaHRCFs5zc/NkmiKYQzk5eTIMsYIOAABwkkLyQKjHUyG320Mwh6TqL2hut0ceT0WkpwIAANCohCScl5aWKimpWShKoYlISmqm0tLSSE8DAACgUQlJOC93e5SQEB+KUmgiEhLiVe72RHoaAAAAjUpIwrnP6+OtLDiG0+nkNZoAAAAniU2IAAAAAIsgnAMAAAAWQTgHAAAALIJwDgAAAFgE4fyUFVD+ti3aw6vIAQAALINwfkoy5f76Fd01/XG9uO6gQrJFLAAAAP5jFgjnPn015wb17nOtHv+kMuTV/ZkLdW2/aXp1f0CS5N78tK4aMEFzv/SG/FyWEtivN6eO1qAZH+pA4Nghf/ZKPfLHj5Q4+Qk9PCRZRmRmCAAAgOPYIz0B+XZr9UZTnTtJm9bukLdvT4XzjenRrdN08cUOdWkV+UsPK6OZzurTVxc72ivxmPRtqqLgkM645UlNGnOmYiI1PwAAAJwg4gm1atd6bSjvrkm3VumpF9Zrm7en0sOYzu3tB+vuRweHpbZpmjIMi6xDG4lKv/lepZ84oPjuY/X77hGYEwAAAH5RhNtaqrRr7SYVntNDF/Q5X2nFm7X2m1q7Svo+1+PDJmre+q1646FpuvKKYbpo0K26b9keHW2A8ebps6XzNX3cdbrkokG6ZPhUPfLBD/q5ppVj21yqtHXuDerd+zL1PPpzuS6cvlxFZkCl367W8w/8XqMHDlXffqM0ZsYifVp0pEO7Qh/PHK5bXt2qNfPv1JX9h2jCK/sUOP6Enr36aO49GjtkqPr2G61r73hJa7J8kupX/6ZFX2nDwoc0bsRIXdT/Wk2ctVoH/PWpX6GPZw7R5Y98UnMvAof0xat/1o1XjVTfi0ZoxM1/1uIth2rmXJ/7DQAAgLCJbDj3f6+M9fk664Ieap7cQ33OLNK6tbt0zKbv/gN668k35BnxiJb933t67eYkbZq/QCsOVofYQPHXWrXNqUunPKTF77ysOdfFa91T8/Tu8Y3WdbLrvKkLtGrl+1q98n19/MwYtY9pp2tvulwtDK9+2LBReWeN1v3PLtS7L09Xz5w39fALX+qnmslpz+v/rTeNsXphxQf6+2/aHXtDA9l6777/0uObEjT6T89o6ZLHdHOaQz6bTVJ96ldp56K5+jDhev3t/Q/0z+eGyVz+jF7cWFGP+sfzaufCe3THkgKl3/6k3njtKd3Ru0BL7rhHC3bW+ioT5H4DAAAgfCLa1uL/13plZLXRZb1byWaT0tNb6/mVG5Q5/Tx1OzqzKPX67R91a58kGZI6DL5Uac8uUeYPfo1Ktst22iDdN3vQ0Zodx1+tfkse1RfbKjSurSvoHKJiE9QsVlLlbr3w3AppzCxN6RknSep2y4PqdvSTbTRh5Lta/sFX+t7fW2lRkmSqMnW47rutr9pGnVjbu+UdvfRZc41/+R6NS3NIktr/7ryj1xW8vqHYS6fo0evTFC1JaQPU/1dva/XuHAX6d1TVL9Y/llm6QYuXZqn77Ys1bXBL2SR1nHq/yjJv1PzFG/TrJwYosR73GwAAAOETwbTl156MTdqX3FN9O1Yn27Mu6Knmr23Smt2T1K3LkakZsttrkq8RE6sYeeWtrFnJ9eZ9rRUfrFTG5zu1t7BURR6/OrsrFFDwcH64gjIXz9HrnqGaO7l7zVGBMv1r/f/qH6s+1ZZduSouLpDP3lnugKQj4bljxzqDuRRQ9o5dOtSyl/p1ctR92qD1JZs9qtbbVKIVGytVVnpl1qd+Lf69u7Tzp3Ya0yu5ZnXflqxe6b9S5bKd+t4/QD1UfU3B7jcAAADCI3JtLYF9ysj4Ub78f2jGoBHqf9kIDbzrIxVWZWvd2j3yBzn8aGf29lc0afwsrQz00I0Pz9c7b92v4Sk2yax/mPTuXqpZr3s04t5b1dt1OAoH8rXigUmavHCv2gydpqdfW6xFU7rIcRJ1zUBAMn7mFoe7/omflmTohOdV6/n8KtEcAAAg/CK2ch74caPW7k3Q0Iee0W09jqz8evXl36br8YwN+m5KZ50TtIpPX773nr7vNUMrJg+oXvGuqn5rSr1592jJ7LdUOuxh3ZbuOppVA9lrtDQjTtctulNjO0VJMlVonkxItal15zOVUPCVPt1bpR5nH3urw13/eFEdOquTc7m+2FKkie1Sqr+VBYr01Rc/ytFpjDpESaqq98kBAAAQBhFaOQ9o37qN2pN0sUZecYbatEk9/NNOA4dfqMT9G7V2T7C1c0ky5HLFyrd3qz79vkDZ336ut2c/rxVFNRHXcDjkMD0qKqw48U0q8um71+folfy+mjzubPlLSlRcXKKS0p8UiHHJZSvU9k8ylZ2/X9v+uUiPLt5RR42fF9PnGo3rfEBL/jRXyz7bo6ys75Sx+Gk9v75YCnP940O+kXixbhrbWluem6UXV2fqhx92adVLs/Tslta6fuIlamaRN0ACAACcyiITzgPVrSstLhugXtHHDsX2HqBLk/YrI+PHegRVu7pPvFMTUrfqsYkTNOGBZcrtO13T+tb0YNvapeuysw/qrdlvKPP4vO/9TK8uzpQ7f5UeGDNaAwaO0oCBo3TFb17WN0kDNePOi1S29G5dc91MzducqAkzr9LpJ3PH7GfqxrlPatq5B/TqvVN1za/v0bPbYnXWGTGypYS3/olZO0bnTfmL5o9voc3zZuqGcXdpzictNH7eXzStG1sRAQAAWIFhnlQPSN0yM7/Vued2CsV80ITwfwEAAHByIrwJEQAAAIAjCOcAAACARRDOAQAAAIsgnAMAAAAWQTgHAAAALIJwDgAAAFhESMK5w+mQ1+sNRSk0EV6vVw6nI/gHAQAAcFRIwnm8K05lZeWhKIUmoqysXPGuuEhPAwAAoFEJSThPTExUcXFJKEqhiSguLlFiYmKkpwEAANCohCScx8XFyuWKU05OXijKoZHLycmTyxWnuLjYSE8FAACgUQnZA6Gpqa3k8/kI6Ke4nJw8+Xw+paa2ivRUAAAAGh3DNE0zlAVzc/PkdnuUlNRMCQnxcjqdoSwPC/J6vSorK1dxcYlcrjiCOQAAwP9TyMO5JHk8FSotLVW52yOf1xfq8rAYh9OheFecEhMTaWUBAAD4D4QlnAMAAAA4eWxCBAAAAFgE4RwAAACwCMI5AAAAYBGEcwAAAMAiCOcAAACARRDOAQAAAIsgnAMAAAAWQTgHAAAALIJwDgAAAFgE4RwAAACwCMI5AAAAYBGEcwAAAMAiCOcAAACARRDOAQAAAIsgnAMAAAAW8W/1xXf8JnDBzQAAAABJRU5ErkJggg==;" vertex="1" parent="1">
                    <mxGeometry x="896.58" y="270" width="139.54" height="112.87" as="geometry"/>
                </mxCell>
            </root>
        </mxGraphModel>
    </diagram>
</mxfile>